# MagicaVoxel @ Ephtracy

# group
g PanierBois

# material
mtllib PanierBois.mtl
usemtl palette

# normals
vn -1 0 0
vn 1 0 0
vn 0 0 1
vn 0 0 -1
vn 0 -1 0
vn 0 1 0

# texcoords
vt 0.865234 0.5
vt 0.869141 0.5
vt 0.873047 0.5

# verts
v -20 12 20
v -20 12 -20
v -20 15 20
v -20 15 -20
v -19 5 19
v -19 5 -19
v -19 9 4
v -19 9 -4
v -19 11 4
v -19 11 -4
v -19 12 19
v -19 12 -19
v -18 0 18
v -18 0 -18
v -18 5 18
v -18 5 -18
v 4 9 19
v 4 9 18
v 4 9 -18
v 4 9 -19
v 4 11 19
v 4 11 18
v 4 11 -18
v 4 11 -19
v 15 2 15
v 15 2 8
v 15 2 3
v 15 2 -3
v 15 2 -8
v 15 2 -15
v 15 3 15
v 15 3 8
v 15 3 3
v 15 3 -3
v 15 3 -8
v 15 3 -15
v 16 3 16
v 16 3 8
v 16 3 3
v 16 3 -3
v 16 3 -8
v 16 3 -16
v 16 5 16
v 16 5 8
v 16 5 3
v 16 5 -3
v 16 5 -8
v 16 5 -16
v 16 6 16
v 16 6 -16
v 17 6 17
v 17 6 -17
v 17 9 17
v 17 9 -17
v 18 9 18
v 18 9 -18
v 18 10 4
v 18 10 -4
v 18 12 18
v 18 12 4
v 18 12 -4
v 18 12 -18
v 19 12 19
v 19 12 4
v 19 12 -4
v 19 12 -19
v 19 15 19
v 19 15 -19
v -19 12 19
v -19 12 -19
v -19 15 19
v -19 15 -19
v -18 9 18
v -18 9 4
v -18 9 -4
v -18 9 -18
v -18 11 4
v -18 11 -4
v -18 12 18
v -18 12 -18
v -17 6 17
v -17 6 -17
v -17 9 17
v -17 9 -17
v -16 3 16
v -16 3 8
v -16 3 3
v -16 3 -3
v -16 3 -8
v -16 3 -16
v -16 5 16
v -16 5 8
v -16 5 3
v -16 5 -3
v -16 5 -8
v -16 5 -16
v -16 6 16
v -16 6 -16
v -15 2 15
v -15 2 8
v -15 2 3
v -15 2 -3
v -15 2 -8
v -15 2 -15
v -15 3 15
v -15 3 8
v -15 3 3
v -15 3 -3
v -15 3 -8
v -15 3 -15
v -4 9 19
v -4 9 18
v -4 9 -18
v -4 9 -19
v -4 11 19
v -4 11 18
v -4 11 -18
v -4 11 -19
v 18 0 18
v 18 0 -18
v 18 5 18
v 18 5 -18
v 19 5 19
v 19 5 -19
v 19 10 4
v 19 10 -4
v 19 12 19
v 19 12 4
v 19 12 -4
v 19 12 -19
v 20 12 20
v 20 12 -20
v 20 15 20
v 20 15 -20
v -20 12 20
v -20 15 20
v 20 12 20
v 20 15 20
v -19 5 19
v -19 12 19
v -4 9 19
v -4 11 19
v 4 9 19
v 4 11 19
v 19 5 19
v 19 12 19
v -18 0 18
v -18 5 18
v 18 0 18
v 18 5 18
v -19 9 -4
v -19 11 -4
v -18 9 -4
v -18 11 -4
v 18 10 -4
v 18 12 -4
v 19 10 -4
v 19 12 -4
v -15 2 -15
v -15 3 -15
v -8 2 -15
v -8 3 -15
v -3 2 -15
v -3 3 -15
v 3 2 -15
v 3 3 -15
v 8 2 -15
v 8 3 -15
v 15 2 -15
v 15 3 -15
v -16 3 -16
v -16 5 -16
v -16 6 -16
v -8 3 -16
v -8 5 -16
v -3 3 -16
v -3 5 -16
v 3 3 -16
v 3 5 -16
v 8 3 -16
v 8 5 -16
v 16 3 -16
v 16 5 -16
v 16 6 -16
v -17 6 -17
v -17 9 -17
v 17 6 -17
v 17 9 -17
v -18 9 -18
v -18 12 -18
v -4 9 -18
v -4 11 -18
v 4 9 -18
v 4 11 -18
v 18 9 -18
v 18 12 -18
v -19 12 -19
v -19 15 -19
v 19 12 -19
v 19 15 -19
v -19 12 19
v -19 15 19
v 19 12 19
v 19 15 19
v -18 9 18
v -18 12 18
v -4 9 18
v -4 11 18
v 4 9 18
v 4 11 18
v 18 9 18
v 18 12 18
v -17 6 17
v -17 9 17
v 17 6 17
v 17 9 17
v -16 3 16
v -16 5 16
v -16 6 16
v -8 3 16
v -8 5 16
v -3 3 16
v -3 5 16
v 3 3 16
v 3 5 16
v 8 3 16
v 8 5 16
v 16 3 16
v 16 5 16
v 16 6 16
v -15 2 15
v -15 3 15
v -8 2 15
v -8 3 15
v -3 2 15
v -3 3 15
v 3 2 15
v 3 3 15
v 8 2 15
v 8 3 15
v 15 2 15
v 15 3 15
v -19 9 4
v -19 11 4
v -18 9 4
v -18 11 4
v 18 10 4
v 18 12 4
v 19 10 4
v 19 12 4
v -18 0 -18
v -18 5 -18
v 18 0 -18
v 18 5 -18
v -19 5 -19
v -19 12 -19
v -4 9 -19
v -4 11 -19
v 4 9 -19
v 4 11 -19
v 19 5 -19
v 19 12 -19
v -20 12 -20
v -20 15 -20
v 20 12 -20
v 20 15 -20
v -18 0 18
v 18 0 18
v -18 0 -18
v 18 0 -18
v -19 5 19
v 19 5 19
v -18 5 18
v 18 5 18
v -18 5 -18
v 18 5 -18
v -19 5 -19
v 19 5 -19
v -4 11 19
v 4 11 19
v -4 11 18
v 4 11 18
v -19 11 4
v -18 11 4
v -19 11 -4
v -18 11 -4
v -4 11 -18
v 4 11 -18
v -4 11 -19
v 4 11 -19
v -20 12 20
v 20 12 20
v -19 12 19
v 19 12 19
v 19 12 4
v 19 12 -4
v -19 12 -19
v 19 12 -19
v -20 12 -20
v 20 12 -20
v -15 2 15
v -8 2 15
v -3 2 15
v 3 2 15
v 8 2 15
v 15 2 15
v -15 2 8
v -8 2 8
v -3 2 8
v 3 2 8
v 8 2 8
v 15 2 8
v -15 2 3
v -8 2 3
v -3 2 3
v 3 2 3
v 8 2 3
v 15 2 3
v -15 2 -3
v -8 2 -3
v -3 2 -3
v 3 2 -3
v 8 2 -3
v 15 2 -3
v -15 2 -8
v -8 2 -8
v -3 2 -8
v 3 2 -8
v 8 2 -8
v 15 2 -8
v -15 2 -15
v -8 2 -15
v -3 2 -15
v 3 2 -15
v 8 2 -15
v 15 2 -15
v -16 3 16
v -8 3 16
v -3 3 16
v 3 3 16
v 8 3 16
v 16 3 16
v -15 3 15
v -8 3 15
v -3 3 15
v 3 3 15
v 8 3 15
v 15 3 15
v -16 3 8
v -15 3 8
v 15 3 8
v 16 3 8
v -16 3 3
v -15 3 3
v 15 3 3
v 16 3 3
v -16 3 -3
v -15 3 -3
v 15 3 -3
v 16 3 -3
v -16 3 -8
v -15 3 -8
v 15 3 -8
v 16 3 -8
v -15 3 -15
v -8 3 -15
v -3 3 -15
v 3 3 -15
v 8 3 -15
v 15 3 -15
v -16 3 -16
v -8 3 -16
v -3 3 -16
v 3 3 -16
v 8 3 -16
v 16 3 -16
v -17 6 17
v 17 6 17
v -16 6 16
v 16 6 16
v -16 6 -16
v 16 6 -16
v -17 6 -17
v 17 6 -17
v -4 9 19
v 4 9 19
v -18 9 18
v -4 9 18
v 4 9 18
v 18 9 18
v -17 9 17
v 17 9 17
v -19 9 4
v -18 9 4
v -19 9 -4
v -18 9 -4
v -17 9 -17
v 17 9 -17
v -18 9 -18
v -4 9 -18
v 4 9 -18
v 18 9 -18
v -4 9 -19
v 4 9 -19
v 18 10 4
v 19 10 4
v 18 10 -4
v 19 10 -4
v -19 12 19
v 19 12 19
v -18 12 18
v 18 12 18
v 18 12 4
v 19 12 4
v 18 12 -4
v 19 12 -4
v -18 12 -18
v 18 12 -18
v -19 12 -19
v 19 12 -19
v -20 15 20
v 20 15 20
v -19 15 19
v 19 15 19
v -19 15 -19
v 19 15 -19
v -20 15 -20
v 20 15 -20

# faces
f 3/3/1 2/3/1 1/3/1
f 4/3/1 2/3/1 3/3/1
f 7/2/1 6/2/1 5/2/1
f 8/2/1 6/2/1 7/2/1
f 9/2/1 7/2/1 5/2/1
f 10/2/1 6/2/1 8/2/1
f 11/2/1 9/2/1 5/2/1
f 11/2/1 10/2/1 9/2/1
f 12/2/1 6/2/1 10/2/1
f 12/2/1 10/2/1 11/2/1
f 15/1/1 14/1/1 13/1/1
f 16/1/1 14/1/1 15/1/1
f 21/2/1 18/2/1 17/2/1
f 22/2/1 18/2/1 21/2/1
f 23/2/1 20/2/1 19/2/1
f 24/2/1 20/2/1 23/2/1
f 31/1/1 26/1/1 25/1/1
f 32/2/1 27/2/1 26/2/1
f 32/1/1 26/1/1 31/1/1
f 33/1/1 28/1/1 27/1/1
f 33/2/1 27/2/1 32/2/1
f 34/2/1 29/2/1 28/2/1
f 34/1/1 28/1/1 33/1/1
f 35/1/1 30/1/1 29/1/1
f 35/2/1 29/2/1 34/2/1
f 36/1/1 30/1/1 35/1/1
f 43/1/1 38/1/1 37/1/1
f 44/2/1 39/2/1 38/2/1
f 44/1/1 38/1/1 43/1/1
f 45/1/1 40/1/1 39/1/1
f 45/2/1 39/2/1 44/2/1
f 46/2/1 41/2/1 40/2/1
f 46/1/1 40/1/1 45/1/1
f 47/1/1 42/1/1 41/1/1
f 47/2/1 41/2/1 46/2/1
f 48/1/1 42/1/1 47/1/1
f 49/2/1 46/2/1 45/2/1
f 49/2/1 44/2/1 43/2/1
f 49/2/1 48/2/1 47/2/1
f 49/2/1 47/2/1 46/2/1
f 49/2/1 45/2/1 44/2/1
f 50/2/1 48/2/1 49/2/1
f 53/2/1 52/2/1 51/2/1
f 54/2/1 52/2/1 53/2/1
f 57/2/1 56/2/1 55/2/1
f 58/2/1 56/2/1 57/2/1
f 59/2/1 57/2/1 55/2/1
f 60/2/1 57/2/1 59/2/1
f 61/2/1 56/2/1 58/2/1
f 62/2/1 56/2/1 61/2/1
f 67/3/1 64/3/1 63/3/1
f 67/3/1 66/3/1 65/3/1
f 67/3/1 65/3/1 64/3/1
f 68/3/1 66/3/1 67/3/1
f 69/3/2 70/3/2 71/3/2
f 71/3/2 70/3/2 72/3/2
f 73/2/2 74/2/2 77/2/2
f 75/2/2 76/2/2 78/2/2
f 73/2/2 77/2/2 79/2/2
f 77/2/2 78/2/2 79/2/2
f 78/2/2 76/2/2 80/2/2
f 79/2/2 78/2/2 80/2/2
f 81/2/2 82/2/2 83/2/2
f 83/2/2 82/2/2 84/2/2
f 85/1/2 86/1/2 91/1/2
f 86/2/2 87/2/2 92/2/2
f 91/1/2 86/1/2 92/1/2
f 87/1/2 88/1/2 93/1/2
f 92/2/2 87/2/2 93/2/2
f 88/2/2 89/2/2 94/2/2
f 93/1/2 88/1/2 94/1/2
f 89/1/2 90/1/2 95/1/2
f 94/2/2 89/2/2 95/2/2
f 95/1/2 90/1/2 96/1/2
f 93/2/2 94/2/2 97/2/2
f 91/2/2 92/2/2 97/2/2
f 95/2/2 96/2/2 97/2/2
f 94/2/2 95/2/2 97/2/2
f 92/2/2 93/2/2 97/2/2
f 97/2/2 96/2/2 98/2/2
f 99/1/2 100/1/2 105/1/2
f 100/2/2 101/2/2 106/2/2
f 105/1/2 100/1/2 106/1/2
f 101/1/2 102/1/2 107/1/2
f 106/2/2 101/2/2 107/2/2
f 102/2/2 103/2/2 108/2/2
f 107/1/2 102/1/2 108/1/2
f 103/1/2 104/1/2 109/1/2
f 108/2/2 103/2/2 109/2/2
f 109/1/2 104/1/2 110/1/2
f 111/2/2 112/2/2 115/2/2
f 115/2/2 112/2/2 116/2/2
f 113/2/2 114/2/2 117/2/2
f 117/2/2 114/2/2 118/2/2
f 119/1/2 120/1/2 121/1/2
f 121/1/2 120/1/2 122/1/2
f 123/2/2 124/2/2 125/2/2
f 125/2/2 124/2/2 126/2/2
f 123/2/2 125/2/2 127/2/2
f 127/2/2 125/2/2 128/2/2
f 126/2/2 124/2/2 129/2/2
f 129/2/2 124/2/2 130/2/2
f 131/3/2 132/3/2 133/3/2
f 133/3/2 132/3/2 134/3/2
f 137/3/3 136/3/3 135/3/3
f 138/3/3 136/3/3 137/3/3
f 141/2/3 140/2/3 139/2/3
f 142/2/3 140/2/3 141/2/3
f 143/2/3 141/2/3 139/2/3
f 144/2/3 140/2/3 142/2/3
f 145/2/3 143/2/3 139/2/3
f 145/2/3 144/2/3 143/2/3
f 146/2/3 140/2/3 144/2/3
f 146/2/3 144/2/3 145/2/3
f 149/1/3 148/1/3 147/1/3
f 150/1/3 148/1/3 149/1/3
f 153/2/3 152/2/3 151/2/3
f 154/2/3 152/2/3 153/2/3
f 157/2/3 156/2/3 155/2/3
f 158/2/3 156/2/3 157/2/3
f 161/1/3 160/1/3 159/1/3
f 162/1/3 160/1/3 161/1/3
f 163/2/3 162/2/3 161/2/3
f 164/2/3 162/2/3 163/2/3
f 165/1/3 164/1/3 163/1/3
f 166/1/3 164/1/3 165/1/3
f 167/2/3 166/2/3 165/2/3
f 168/2/3 166/2/3 167/2/3
f 169/1/3 168/1/3 167/1/3
f 170/1/3 168/1/3 169/1/3
f 174/1/3 172/1/3 171/1/3
f 175/2/3 173/2/3 172/2/3
f 175/1/3 172/1/3 174/1/3
f 176/2/3 175/2/3 174/2/3
f 177/2/3 173/2/3 175/2/3
f 177/2/3 175/2/3 176/2/3
f 178/1/3 177/1/3 176/1/3
f 179/2/3 173/2/3 177/2/3
f 179/1/3 177/1/3 178/1/3
f 180/2/3 179/2/3 178/2/3
f 181/2/3 173/2/3 179/2/3
f 181/2/3 179/2/3 180/2/3
f 182/1/3 181/1/3 180/1/3
f 183/2/3 173/2/3 181/2/3
f 183/1/3 181/1/3 182/1/3
f 184/2/3 173/2/3 183/2/3
f 187/2/3 186/2/3 185/2/3
f 188/2/3 186/2/3 187/2/3
f 191/2/3 190/2/3 189/2/3
f 192/2/3 190/2/3 191/2/3
f 194/2/3 190/2/3 192/2/3
f 195/2/3 194/2/3 193/2/3
f 196/2/3 190/2/3 194/2/3
f 196/2/3 194/2/3 195/2/3
f 199/3/3 198/3/3 197/3/3
f 200/3/3 198/3/3 199/3/3
f 201/3/4 202/3/4 203/3/4
f 203/3/4 202/3/4 204/3/4
f 205/2/4 206/2/4 207/2/4
f 207/2/4 206/2/4 208/2/4
f 208/2/4 206/2/4 210/2/4
f 209/2/4 210/2/4 211/2/4
f 210/2/4 206/2/4 212/2/4
f 211/2/4 210/2/4 212/2/4
f 213/2/4 214/2/4 215/2/4
f 215/2/4 214/2/4 216/2/4
f 217/1/4 218/1/4 220/1/4
f 218/2/4 219/2/4 221/2/4
f 220/1/4 218/1/4 221/1/4
f 220/2/4 221/2/4 222/2/4
f 221/2/4 219/2/4 223/2/4
f 222/2/4 221/2/4 223/2/4
f 222/1/4 223/1/4 224/1/4
f 223/2/4 219/2/4 225/2/4
f 224/1/4 223/1/4 225/1/4
f 224/2/4 225/2/4 226/2/4
f 225/2/4 219/2/4 227/2/4
f 226/2/4 225/2/4 227/2/4
f 226/1/4 227/1/4 228/1/4
f 227/2/4 219/2/4 229/2/4
f 228/1/4 227/1/4 229/1/4
f 229/2/4 219/2/4 230/2/4
f 231/1/4 232/1/4 233/1/4
f 233/1/4 232/1/4 234/1/4
f 233/2/4 234/2/4 235/2/4
f 235/2/4 234/2/4 236/2/4
f 235/1/4 236/1/4 237/1/4
f 237/1/4 236/1/4 238/1/4
f 237/2/4 238/2/4 239/2/4
f 239/2/4 238/2/4 240/2/4
f 239/1/4 240/1/4 241/1/4
f 241/1/4 240/1/4 242/1/4
f 243/2/4 244/2/4 245/2/4
f 245/2/4 244/2/4 246/2/4
f 247/2/4 248/2/4 249/2/4
f 249/2/4 248/2/4 250/2/4
f 251/1/4 252/1/4 253/1/4
f 253/1/4 252/1/4 254/1/4
f 255/2/4 256/2/4 257/2/4
f 257/2/4 256/2/4 258/2/4
f 255/2/4 257/2/4 259/2/4
f 258/2/4 256/2/4 260/2/4
f 255/2/4 259/2/4 261/2/4
f 259/2/4 260/2/4 261/2/4
f 260/2/4 256/2/4 262/2/4
f 261/2/4 260/2/4 262/2/4
f 263/3/4 264/3/4 265/3/4
f 265/3/4 264/3/4 266/3/4
f 269/1/5 268/1/5 267/1/5
f 270/1/5 268/1/5 269/1/5
f 273/2/5 272/2/5 271/2/5
f 274/2/5 272/2/5 273/2/5
f 275/2/5 273/2/5 271/2/5
f 276/2/5 272/2/5 274/2/5
f 277/2/5 275/2/5 271/2/5
f 277/2/5 276/2/5 275/2/5
f 278/2/5 272/2/5 276/2/5
f 278/2/5 276/2/5 277/2/5
f 281/2/5 280/2/5 279/2/5
f 282/2/5 280/2/5 281/2/5
f 285/2/5 284/2/5 283/2/5
f 286/2/5 284/2/5 285/2/5
f 289/2/5 288/2/5 287/2/5
f 290/2/5 288/2/5 289/2/5
f 293/3/5 292/3/5 291/3/5
f 294/3/5 292/3/5 293/3/5
f 295/3/5 292/3/5 294/3/5
f 296/3/5 292/3/5 295/3/5
f 297/3/5 293/3/5 291/3/5
f 298/3/5 292/3/5 296/3/5
f 299/3/5 297/3/5 291/3/5
f 299/3/5 298/3/5 297/3/5
f 300/3/5 292/3/5 298/3/5
f 300/3/5 298/3/5 299/3/5
f 301/1/6 302/1/6 307/1/6
f 302/2/6 303/2/6 308/2/6
f 307/1/6 302/1/6 308/1/6
f 303/1/6 304/1/6 309/1/6
f 308/2/6 303/2/6 309/2/6
f 304/2/6 305/2/6 310/2/6
f 309/1/6 304/1/6 310/1/6
f 305/1/6 306/1/6 311/1/6
f 310/2/6 305/2/6 311/2/6
f 311/1/6 306/1/6 312/1/6
f 309/2/6 310/2/6 313/2/6
f 307/2/6 308/2/6 313/2/6
f 311/2/6 312/2/6 313/2/6
f 310/2/6 311/2/6 313/2/6
f 308/2/6 309/2/6 313/2/6
f 313/2/6 312/2/6 314/2/6
f 314/2/6 312/2/6 315/2/6
f 315/2/6 312/2/6 316/2/6
f 316/2/6 312/2/6 317/2/6
f 317/2/6 312/2/6 318/2/6
f 313/1/6 314/1/6 319/1/6
f 314/2/6 315/2/6 320/2/6
f 319/1/6 314/1/6 320/1/6
f 315/1/6 316/1/6 321/1/6
f 320/2/6 315/2/6 321/2/6
f 316/2/6 317/2/6 322/2/6
f 321/1/6 316/1/6 322/1/6
f 317/1/6 318/1/6 323/1/6
f 322/2/6 317/2/6 323/2/6
f 323/1/6 318/1/6 324/1/6
f 319/2/6 320/2/6 325/2/6
f 320/2/6 321/2/6 325/2/6
f 323/2/6 324/2/6 325/2/6
f 322/2/6 323/2/6 325/2/6
f 321/2/6 322/2/6 325/2/6
f 325/2/6 324/2/6 326/2/6
f 326/2/6 324/2/6 327/2/6
f 327/2/6 324/2/6 328/2/6
f 328/2/6 324/2/6 329/2/6
f 329/2/6 324/2/6 330/2/6
f 325/1/6 326/1/6 331/1/6
f 326/2/6 327/2/6 332/2/6
f 331/1/6 326/1/6 332/1/6
f 327/1/6 328/1/6 333/1/6
f 332/2/6 327/2/6 333/2/6
f 328/2/6 329/2/6 334/2/6
f 333/1/6 328/1/6 334/1/6
f 329/1/6 330/1/6 335/1/6
f 334/2/6 329/2/6 335/2/6
f 335/1/6 330/1/6 336/1/6
f 337/1/6 338/1/6 343/1/6
f 338/2/6 339/2/6 344/2/6
f 343/1/6 338/1/6 344/1/6
f 339/1/6 340/1/6 345/1/6
f 344/2/6 339/2/6 345/2/6
f 340/2/6 341/2/6 346/2/6
f 345/1/6 340/1/6 346/1/6
f 341/1/6 342/1/6 347/1/6
f 346/2/6 341/2/6 347/2/6
f 347/1/6 342/1/6 348/1/6
f 337/1/6 343/1/6 349/1/6
f 349/1/6 343/1/6 350/1/6
f 348/1/6 342/1/6 351/1/6
f 351/1/6 342/1/6 352/1/6
f 349/2/6 350/2/6 353/2/6
f 353/2/6 350/2/6 354/2/6
f 351/2/6 352/2/6 355/2/6
f 355/2/6 352/2/6 356/2/6
f 353/1/6 354/1/6 357/1/6
f 357/1/6 354/1/6 358/1/6
f 355/1/6 356/1/6 359/1/6
f 359/1/6 356/1/6 360/1/6
f 357/2/6 358/2/6 361/2/6
f 361/2/6 358/2/6 362/2/6
f 359/2/6 360/2/6 363/2/6
f 363/2/6 360/2/6 364/2/6
f 361/1/6 362/1/6 365/1/6
f 363/1/6 364/1/6 370/1/6
f 361/1/6 365/1/6 371/1/6
f 365/1/6 366/1/6 371/1/6
f 366/2/6 367/2/6 372/2/6
f 371/1/6 366/1/6 372/1/6
f 367/1/6 368/1/6 373/1/6
f 372/2/6 367/2/6 373/2/6
f 368/2/6 369/2/6 374/2/6
f 373/1/6 368/1/6 374/1/6
f 369/1/6 370/1/6 375/1/6
f 374/2/6 369/2/6 375/2/6
f 370/1/6 364/1/6 376/1/6
f 375/1/6 370/1/6 376/1/6
f 377/2/6 378/2/6 379/2/6
f 379/2/6 378/2/6 380/2/6
f 377/2/6 379/2/6 381/2/6
f 380/2/6 378/2/6 382/2/6
f 377/2/6 381/2/6 383/2/6
f 381/2/6 382/2/6 383/2/6
f 382/2/6 378/2/6 384/2/6
f 383/2/6 382/2/6 384/2/6
f 385/2/6 386/2/6 388/2/6
f 388/2/6 386/2/6 389/2/6
f 387/2/6 388/2/6 391/2/6
f 389/2/6 390/2/6 391/2/6
f 388/2/6 389/2/6 391/2/6
f 391/2/6 390/2/6 392/2/6
f 387/2/6 391/2/6 394/2/6
f 393/2/6 394/2/6 395/2/6
f 394/2/6 391/2/6 396/2/6
f 395/2/6 394/2/6 396/2/6
f 396/2/6 391/2/6 397/2/6
f 392/2/6 390/2/6 398/2/6
f 396/2/6 397/2/6 399/2/6
f 397/2/6 398/2/6 399/2/6
f 399/2/6 398/2/6 400/2/6
f 400/2/6 398/2/6 401/2/6
f 398/2/6 390/2/6 402/2/6
f 401/2/6 398/2/6 402/2/6
f 400/2/6 401/2/6 403/2/6
f 403/2/6 401/2/6 404/2/6
f 405/2/6 406/2/6 407/2/6
f 407/2/6 406/2/6 408/2/6
f 409/2/6 410/2/6 411/2/6
f 411/2/6 410/2/6 412/2/6
f 412/2/6 410/2/6 413/2/6
f 413/2/6 410/2/6 414/2/6
f 409/2/6 411/2/6 417/2/6
f 415/2/6 416/2/6 418/2/6
f 409/2/6 417/2/6 419/2/6
f 417/2/6 418/2/6 419/2/6
f 418/2/6 416/2/6 420/2/6
f 419/2/6 418/2/6 420/2/6
f 421/3/6 422/3/6 423/3/6
f 423/3/6 422/3/6 424/3/6
f 421/3/6 423/3/6 425/3/6
f 424/3/6 422/3/6 426/3/6
f 421/3/6 425/3/6 427/3/6
f 425/3/6 426/3/6 427/3/6
f 426/3/6 422/3/6 428/3/6
f 427/3/6 426/3/6 428/3/6
