# MagicaVoxel @ Ephtracy

# group
g lanterne

# material
mtllib lanterne.mtl
usemtl palette

# normals
vn -1 0 0
vn 1 0 0
vn 0 0 1
vn 0 0 -1
vn 0 -1 0
vn 0 1 0

# texcoords
vt 0.990234 0.5
vt 0.994141 0.5

# verts
v -3.5 0 3.5
v -3.5 0 -3.5
v -3.5 1 1.5
v -3.5 1 -1.5
v -3.5 2 2.5
v -3.5 2 1.5
v -3.5 2 -1.5
v -3.5 2 -2.5
v -3.5 4 3.5
v -3.5 4 2.5
v -3.5 4 -2.5
v -3.5 4 -3.5
v -3.5 7 2.5
v -3.5 7 1.5
v -3.5 7 -1.5
v -3.5 7 -2.5
v -3.5 8 3.5
v -3.5 8 2.5
v -3.5 8 1.5
v -3.5 8 -1.5
v -3.5 8 -2.5
v -3.5 8 -3.5
v -3.5 9 2.5
v -3.5 9 -2.5
v -2.5 8 3.5
v -2.5 8 2.5
v -2.5 8 -2.5
v -2.5 8 -3.5
v -2.5 9 3.5
v -2.5 9 2.5
v -2.5 9 -2.5
v -2.5 9 -3.5
v -2.5 10 2.5
v -2.5 10 -2.5
v 1.5 1 3.5
v 1.5 1 2.5
v 1.5 1 -2.5
v 1.5 1 -3.5
v 1.5 2 3.5
v 1.5 2 2.5
v 1.5 2 -2.5
v 1.5 2 -3.5
v 1.5 7 3.5
v 1.5 7 2.5
v 1.5 7 -2.5
v 1.5 7 -3.5
v 1.5 8 3.5
v 1.5 8 2.5
v 1.5 8 -2.5
v 1.5 8 -3.5
v 2.5 1 2.5
v 2.5 1 1.5
v 2.5 1 -1.5
v 2.5 1 -2.5
v 2.5 2 3.5
v 2.5 2 2.5
v 2.5 2 1.5
v 2.5 2 -1.5
v 2.5 2 -2.5
v 2.5 2 -3.5
v 2.5 4 3.5
v 2.5 4 2.5
v 2.5 4 -2.5
v 2.5 4 -3.5
v 2.5 7 3.5
v 2.5 7 2.5
v 2.5 7 1.5
v 2.5 7 -1.5
v 2.5 7 -2.5
v 2.5 7 -3.5
v 2.5 8 1.5
v 2.5 8 -1.5
v 2.5 9 2.5
v 2.5 9 -2.5
v -2.5 1 2.5
v -2.5 1 1.5
v -2.5 1 -1.5
v -2.5 1 -2.5
v -2.5 2 3.5
v -2.5 2 2.5
v -2.5 2 1.5
v -2.5 2 -1.5
v -2.5 2 -2.5
v -2.5 2 -3.5
v -2.5 4 3.5
v -2.5 4 2.5
v -2.5 4 -2.5
v -2.5 4 -3.5
v -2.5 7 3.5
v -2.5 7 2.5
v -2.5 7 1.5
v -2.5 7 -1.5
v -2.5 7 -2.5
v -2.5 8 1.5
v -2.5 8 -1.5
v -2.5 8 -2.5
v -2.5 8 -3.5
v -2.5 9 2.5
v -2.5 9 -2.5
v -1.5 1 3.5
v -1.5 1 2.5
v -1.5 1 -2.5
v -1.5 1 -3.5
v -1.5 2 3.5
v -1.5 2 2.5
v -1.5 2 -2.5
v -1.5 2 -3.5
v -1.5 7 3.5
v -1.5 7 2.5
v -1.5 8 3.5
v -1.5 8 2.5
v 2.5 8 3.5
v 2.5 8 2.5
v 2.5 8 -2.5
v 2.5 8 -3.5
v 2.5 9 3.5
v 2.5 9 2.5
v 2.5 9 -2.5
v 2.5 9 -3.5
v 2.5 10 2.5
v 2.5 10 -2.5
v 3.5 0 3.5
v 3.5 0 -3.5
v 3.5 1 1.5
v 3.5 1 -1.5
v 3.5 2 2.5
v 3.5 2 1.5
v 3.5 2 -1.5
v 3.5 2 -2.5
v 3.5 4 3.5
v 3.5 4 2.5
v 3.5 4 -2.5
v 3.5 4 -3.5
v 3.5 7 2.5
v 3.5 7 1.5
v 3.5 7 -1.5
v 3.5 7 -2.5
v 3.5 8 3.5
v 3.5 8 2.5
v 3.5 8 1.5
v 3.5 8 -1.5
v 3.5 8 -2.5
v 3.5 8 -3.5
v 3.5 9 2.5
v 3.5 9 -2.5
v -3.5 0 3.5
v -3.5 4 3.5
v -3.5 8 3.5
v -2.5 2 3.5
v -2.5 4 3.5
v -2.5 7 3.5
v -2.5 8 3.5
v -2.5 9 3.5
v -1.5 1 3.5
v -1.5 2 3.5
v -1.5 7 3.5
v -1.5 8 3.5
v 1.5 1 3.5
v 1.5 2 3.5
v 1.5 7 3.5
v 1.5 8 3.5
v 2.5 2 3.5
v 2.5 4 3.5
v 2.5 7 3.5
v 2.5 8 3.5
v 2.5 9 3.5
v 3.5 0 3.5
v 3.5 4 3.5
v 3.5 8 3.5
v -3.5 8 2.5
v -3.5 9 2.5
v -2.5 8 2.5
v -2.5 9 2.5
v -2.5 10 2.5
v 2.5 8 2.5
v 2.5 9 2.5
v 2.5 10 2.5
v 3.5 8 2.5
v 3.5 9 2.5
v -3.5 1 -1.5
v -3.5 2 -1.5
v -3.5 7 -1.5
v -3.5 8 -1.5
v -2.5 1 -1.5
v -2.5 2 -1.5
v -2.5 7 -1.5
v -2.5 8 -1.5
v 2.5 1 -1.5
v 2.5 2 -1.5
v 2.5 7 -1.5
v 2.5 8 -1.5
v 3.5 1 -1.5
v 3.5 2 -1.5
v 3.5 7 -1.5
v 3.5 8 -1.5
v -3.5 2 -2.5
v -3.5 4 -2.5
v -3.5 7 -2.5
v -2.5 1 -2.5
v -2.5 2 -2.5
v -2.5 4 -2.5
v -2.5 7 -2.5
v -2.5 8 -2.5
v -2.5 9 -2.5
v -1.5 1 -2.5
v -1.5 2 -2.5
v 1.5 1 -2.5
v 1.5 2 -2.5
v 1.5 7 -2.5
v 1.5 8 -2.5
v 2.5 1 -2.5
v 2.5 2 -2.5
v 2.5 4 -2.5
v 2.5 7 -2.5
v 2.5 9 -2.5
v 3.5 2 -2.5
v 3.5 4 -2.5
v 3.5 7 -2.5
v -3.5 2 2.5
v -3.5 4 2.5
v -3.5 7 2.5
v -2.5 1 2.5
v -2.5 2 2.5
v -2.5 4 2.5
v -2.5 7 2.5
v -2.5 9 2.5
v -1.5 1 2.5
v -1.5 2 2.5
v -1.5 7 2.5
v -1.5 8 2.5
v 1.5 1 2.5
v 1.5 2 2.5
v 1.5 7 2.5
v 1.5 8 2.5
v 2.5 1 2.5
v 2.5 2 2.5
v 2.5 4 2.5
v 2.5 7 2.5
v 2.5 9 2.5
v 3.5 2 2.5
v 3.5 4 2.5
v 3.5 7 2.5
v -3.5 1 1.5
v -3.5 2 1.5
v -3.5 7 1.5
v -3.5 8 1.5
v -2.5 1 1.5
v -2.5 2 1.5
v -2.5 7 1.5
v -2.5 8 1.5
v 2.5 1 1.5
v 2.5 2 1.5
v 2.5 7 1.5
v 2.5 8 1.5
v 3.5 1 1.5
v 3.5 2 1.5
v 3.5 7 1.5
v 3.5 8 1.5
v -3.5 8 -2.5
v -3.5 9 -2.5
v -2.5 8 -2.5
v -2.5 9 -2.5
v -2.5 10 -2.5
v 2.5 8 -2.5
v 2.5 9 -2.5
v 2.5 10 -2.5
v 3.5 8 -2.5
v 3.5 9 -2.5
v -3.5 0 -3.5
v -3.5 4 -3.5
v -3.5 8 -3.5
v -2.5 2 -3.5
v -2.5 4 -3.5
v -2.5 8 -3.5
v -2.5 9 -3.5
v -1.5 1 -3.5
v -1.5 2 -3.5
v 1.5 1 -3.5
v 1.5 2 -3.5
v 1.5 7 -3.5
v 1.5 8 -3.5
v 2.5 2 -3.5
v 2.5 4 -3.5
v 2.5 7 -3.5
v 2.5 8 -3.5
v 2.5 9 -3.5
v 3.5 0 -3.5
v 3.5 4 -3.5
v 3.5 8 -3.5
v -3.5 0 3.5
v 3.5 0 3.5
v -3.5 0 -3.5
v 3.5 0 -3.5
v -2.5 7 3.5
v -1.5 7 3.5
v 1.5 7 3.5
v 2.5 7 3.5
v -3.5 7 2.5
v -2.5 7 2.5
v -1.5 7 2.5
v 1.5 7 2.5
v 2.5 7 2.5
v 3.5 7 2.5
v -3.5 7 1.5
v -2.5 7 1.5
v 2.5 7 1.5
v 3.5 7 1.5
v -3.5 7 -1.5
v -2.5 7 -1.5
v 2.5 7 -1.5
v 3.5 7 -1.5
v -3.5 7 -2.5
v -2.5 7 -2.5
v 1.5 7 -2.5
v 2.5 7 -2.5
v 3.5 7 -2.5
v 1.5 7 -3.5
v 2.5 7 -3.5
v -1.5 8 3.5
v 1.5 8 3.5
v -1.5 8 2.5
v 1.5 8 2.5
v -3.5 8 1.5
v -2.5 8 1.5
v 2.5 8 1.5
v 3.5 8 1.5
v -3.5 8 -1.5
v -2.5 8 -1.5
v 2.5 8 -1.5
v 3.5 8 -1.5
v -2.5 8 -2.5
v 1.5 8 -2.5
v -2.5 8 -3.5
v 1.5 8 -3.5
v -2.5 9 2.5
v 2.5 9 2.5
v -2.5 9 -2.5
v 2.5 9 -2.5
v -1.5 1 3.5
v 1.5 1 3.5
v -2.5 1 2.5
v -1.5 1 2.5
v 1.5 1 2.5
v 2.5 1 2.5
v -3.5 1 1.5
v -2.5 1 1.5
v 2.5 1 1.5
v 3.5 1 1.5
v -3.5 1 -1.5
v -2.5 1 -1.5
v 2.5 1 -1.5
v 3.5 1 -1.5
v -2.5 1 -2.5
v -1.5 1 -2.5
v 1.5 1 -2.5
v 2.5 1 -2.5
v -1.5 1 -3.5
v 1.5 1 -3.5
v -2.5 2 3.5
v -1.5 2 3.5
v 1.5 2 3.5
v 2.5 2 3.5
v -3.5 2 2.5
v -2.5 2 2.5
v -1.5 2 2.5
v 1.5 2 2.5
v 2.5 2 2.5
v 3.5 2 2.5
v -3.5 2 1.5
v -2.5 2 1.5
v 2.5 2 1.5
v 3.5 2 1.5
v -3.5 2 -1.5
v -2.5 2 -1.5
v 2.5 2 -1.5
v 3.5 2 -1.5
v -3.5 2 -2.5
v -2.5 2 -2.5
v -1.5 2 -2.5
v 1.5 2 -2.5
v 2.5 2 -2.5
v 3.5 2 -2.5
v -2.5 2 -3.5
v -1.5 2 -3.5
v 1.5 2 -3.5
v 2.5 2 -3.5
v -3.5 8 3.5
v -2.5 8 3.5
v 2.5 8 3.5
v 3.5 8 3.5
v -3.5 8 2.5
v -2.5 8 2.5
v 2.5 8 2.5
v 3.5 8 2.5
v -3.5 8 -2.5
v -2.5 8 -2.5
v 2.5 8 -2.5
v 3.5 8 -2.5
v -3.5 8 -3.5
v -2.5 8 -3.5
v 2.5 8 -3.5
v 3.5 8 -3.5
v -2.5 9 3.5
v 2.5 9 3.5
v -3.5 9 2.5
v -2.5 9 2.5
v 2.5 9 2.5
v 3.5 9 2.5
v -3.5 9 -2.5
v -2.5 9 -2.5
v 2.5 9 -2.5
v 3.5 9 -2.5
v -2.5 9 -3.5
v 2.5 9 -3.5
v -2.5 10 2.5
v 2.5 10 2.5
v -2.5 10 -2.5
v 2.5 10 -2.5

# faces
f 3/1/1 2/1/1 1/1/1
f 4/1/1 2/1/1 3/1/1
f 5/1/1 3/1/1 1/1/1
f 6/1/1 3/1/1 5/1/1
f 7/1/1 2/1/1 4/1/1
f 8/1/1 2/1/1 7/1/1
f 9/1/1 5/1/1 1/1/1
f 10/1/1 5/1/1 9/1/1
f 11/1/1 2/1/1 8/1/1
f 12/1/1 2/1/1 11/1/1
f 13/2/1 10/2/1 9/2/1
f 16/2/1 12/2/1 11/2/1
f 17/2/1 14/2/1 13/2/1
f 17/2/1 13/2/1 9/2/1
f 18/2/1 14/2/1 17/2/1
f 19/2/1 14/2/1 18/2/1
f 20/2/1 16/2/1 15/2/1
f 21/2/1 12/2/1 16/2/1
f 21/2/1 16/2/1 20/2/1
f 22/2/1 12/2/1 21/2/1
f 23/2/1 19/2/1 18/2/1
f 23/2/1 20/2/1 19/2/1
f 23/2/1 21/2/1 20/2/1
f 24/2/1 21/2/1 23/2/1
f 29/2/1 26/2/1 25/2/1
f 30/2/1 26/2/1 29/2/1
f 31/2/1 28/2/1 27/2/1
f 32/2/1 28/2/1 31/2/1
f 33/1/1 31/1/1 30/1/1
f 34/1/1 31/1/1 33/1/1
f 39/1/1 36/1/1 35/1/1
f 40/1/1 36/1/1 39/1/1
f 41/1/1 38/1/1 37/1/1
f 42/1/1 38/1/1 41/1/1
f 47/2/1 44/2/1 43/2/1
f 48/2/1 44/2/1 47/2/1
f 49/2/1 46/2/1 45/2/1
f 50/2/1 46/2/1 49/2/1
f 56/1/1 52/1/1 51/1/1
f 57/1/1 52/1/1 56/1/1
f 58/1/1 54/1/1 53/1/1
f 59/1/1 54/1/1 58/1/1
f 61/1/1 56/1/1 55/1/1
f 62/1/1 56/1/1 61/1/1
f 63/1/1 60/1/1 59/1/1
f 64/1/1 60/1/1 63/1/1
f 65/2/1 62/2/1 61/2/1
f 66/2/1 62/2/1 65/2/1
f 69/2/1 64/2/1 63/2/1
f 70/2/1 64/2/1 69/2/1
f 71/2/1 67/2/1 66/2/1
f 72/2/1 69/2/1 68/2/1
f 73/2/1 71/2/1 66/2/1
f 73/2/1 72/2/1 71/2/1
f 74/2/1 69/2/1 72/2/1
f 74/2/1 72/2/1 73/2/1
f 75/1/2 76/1/2 80/1/2
f 80/1/2 76/1/2 81/1/2
f 77/1/2 78/1/2 82/1/2
f 82/1/2 78/1/2 83/1/2
f 79/1/2 80/1/2 85/1/2
f 85/1/2 80/1/2 86/1/2
f 83/1/2 84/1/2 87/1/2
f 87/1/2 84/1/2 88/1/2
f 85/2/2 86/2/2 89/2/2
f 89/2/2 86/2/2 90/2/2
f 87/2/2 88/2/2 93/2/2
f 90/2/2 91/2/2 94/2/2
f 92/2/2 93/2/2 95/2/2
f 93/2/2 88/2/2 96/2/2
f 95/2/2 93/2/2 96/2/2
f 96/2/2 88/2/2 97/2/2
f 90/2/2 94/2/2 98/2/2
f 94/2/2 95/2/2 98/2/2
f 95/2/2 96/2/2 98/2/2
f 98/2/2 96/2/2 99/2/2
f 100/1/2 101/1/2 104/1/2
f 104/1/2 101/1/2 105/1/2
f 102/1/2 103/1/2 106/1/2
f 106/1/2 103/1/2 107/1/2
f 108/2/2 109/2/2 110/2/2
f 110/2/2 109/2/2 111/2/2
f 112/2/2 113/2/2 116/2/2
f 116/2/2 113/2/2 117/2/2
f 114/2/2 115/2/2 118/2/2
f 118/2/2 115/2/2 119/2/2
f 117/1/2 118/1/2 120/1/2
f 120/1/2 118/1/2 121/1/2
f 122/1/2 123/1/2 124/1/2
f 124/1/2 123/1/2 125/1/2
f 122/1/2 124/1/2 126/1/2
f 126/1/2 124/1/2 127/1/2
f 125/1/2 123/1/2 128/1/2
f 128/1/2 123/1/2 129/1/2
f 122/1/2 126/1/2 130/1/2
f 130/1/2 126/1/2 131/1/2
f 129/1/2 123/1/2 132/1/2
f 132/1/2 123/1/2 133/1/2
f 130/2/2 131/2/2 134/2/2
f 132/2/2 133/2/2 137/2/2
f 134/2/2 135/2/2 138/2/2
f 130/2/2 134/2/2 138/2/2
f 138/2/2 135/2/2 139/2/2
f 139/2/2 135/2/2 140/2/2
f 136/2/2 137/2/2 141/2/2
f 137/2/2 133/2/2 142/2/2
f 141/2/2 137/2/2 142/2/2
f 142/2/2 133/2/2 143/2/2
f 139/2/2 140/2/2 144/2/2
f 140/2/2 141/2/2 144/2/2
f 141/2/2 142/2/2 144/2/2
f 144/2/2 142/2/2 145/2/2
f 149/1/3 147/1/3 146/1/3
f 150/2/3 148/2/3 147/2/3
f 150/1/3 147/1/3 149/1/3
f 151/2/3 148/2/3 150/2/3
f 152/2/3 148/2/3 151/2/3
f 154/1/3 149/1/3 146/1/3
f 155/1/3 149/1/3 154/1/3
f 156/2/3 153/2/3 152/2/3
f 156/2/3 152/2/3 151/2/3
f 157/2/3 153/2/3 156/2/3
f 158/1/3 154/1/3 146/1/3
f 161/2/3 153/2/3 157/2/3
f 162/1/3 159/1/3 158/1/3
f 164/2/3 161/2/3 160/2/3
f 165/2/3 153/2/3 161/2/3
f 165/2/3 161/2/3 164/2/3
f 166/2/3 153/2/3 165/2/3
f 167/1/3 163/1/3 162/1/3
f 167/1/3 158/1/3 146/1/3
f 167/1/3 162/1/3 158/1/3
f 168/2/3 165/2/3 164/2/3
f 168/1/3 163/1/3 167/1/3
f 168/2/3 164/2/3 163/2/3
f 169/2/3 165/2/3 168/2/3
f 172/2/3 171/2/3 170/2/3
f 173/2/3 171/2/3 172/2/3
f 176/1/3 174/1/3 173/1/3
f 177/1/3 174/1/3 176/1/3
f 178/2/3 176/2/3 175/2/3
f 179/2/3 176/2/3 178/2/3
f 184/1/3 181/1/3 180/1/3
f 185/1/3 181/1/3 184/1/3
f 186/2/3 183/2/3 182/2/3
f 187/2/3 183/2/3 186/2/3
f 192/1/3 189/1/3 188/1/3
f 193/1/3 189/1/3 192/1/3
f 194/2/3 191/2/3 190/2/3
f 195/2/3 191/2/3 194/2/3
f 200/1/3 197/1/3 196/1/3
f 201/2/3 198/2/3 197/2/3
f 201/1/3 197/1/3 200/1/3
f 202/2/3 198/2/3 201/2/3
f 205/1/3 200/1/3 199/1/3
f 206/1/3 200/1/3 205/1/3
f 210/2/3 204/2/3 203/2/3
f 211/1/3 208/1/3 207/1/3
f 212/1/3 208/1/3 211/1/3
f 214/2/3 210/2/3 209/2/3
f 215/2/3 204/2/3 210/2/3
f 215/2/3 210/2/3 214/2/3
f 216/1/3 213/1/3 212/1/3
f 217/2/3 214/2/3 213/2/3
f 217/1/3 213/1/3 216/1/3
f 218/2/3 214/2/3 217/2/3
f 219/1/4 220/1/4 223/1/4
f 220/2/4 221/2/4 224/2/4
f 223/1/4 220/1/4 224/1/4
f 224/2/4 221/2/4 225/2/4
f 222/1/4 223/1/4 227/1/4
f 227/1/4 223/1/4 228/1/4
f 225/2/4 226/2/4 229/2/4
f 229/2/4 226/2/4 230/2/4
f 230/2/4 226/2/4 234/2/4
f 231/1/4 232/1/4 235/1/4
f 235/1/4 232/1/4 236/1/4
f 233/2/4 234/2/4 238/2/4
f 234/2/4 226/2/4 239/2/4
f 238/2/4 234/2/4 239/2/4
f 236/1/4 237/1/4 240/1/4
f 237/2/4 238/2/4 241/2/4
f 240/1/4 237/1/4 241/1/4
f 241/2/4 238/2/4 242/2/4
f 243/1/4 244/1/4 247/1/4
f 247/1/4 244/1/4 248/1/4
f 245/2/4 246/2/4 249/2/4
f 249/2/4 246/2/4 250/2/4
f 251/1/4 252/1/4 255/1/4
f 255/1/4 252/1/4 256/1/4
f 253/2/4 254/2/4 257/2/4
f 257/2/4 254/2/4 258/2/4
f 259/2/4 260/2/4 261/2/4
f 261/2/4 260/2/4 262/2/4
f 262/1/4 263/1/4 265/1/4
f 265/1/4 263/1/4 266/1/4
f 264/2/4 265/2/4 267/2/4
f 267/2/4 265/2/4 268/2/4
f 269/1/4 270/1/4 272/1/4
f 270/2/4 271/2/4 273/2/4
f 272/1/4 270/1/4 273/1/4
f 273/2/4 271/2/4 274/2/4
f 269/1/4 272/1/4 276/1/4
f 276/1/4 272/1/4 277/1/4
f 269/1/4 276/1/4 278/1/4
f 274/2/4 275/2/4 281/2/4
f 278/1/4 279/1/4 282/1/4
f 280/2/4 281/2/4 284/2/4
f 281/2/4 275/2/4 285/2/4
f 284/2/4 281/2/4 285/2/4
f 285/2/4 275/2/4 286/2/4
f 269/1/4 278/1/4 287/1/4
f 282/1/4 283/1/4 287/1/4
f 278/1/4 282/1/4 287/1/4
f 284/2/4 285/2/4 288/2/4
f 287/1/4 283/1/4 288/1/4
f 283/2/4 284/2/4 288/2/4
f 288/2/4 285/2/4 289/2/4
f 292/1/5 291/1/5 290/1/5
f 293/1/5 291/1/5 292/1/5
f 299/2/5 295/2/5 294/2/5
f 300/2/5 295/2/5 299/2/5
f 301/2/5 297/2/5 296/2/5
f 302/2/5 297/2/5 301/2/5
f 304/2/5 299/2/5 298/2/5
f 305/2/5 299/2/5 304/2/5
f 306/2/5 303/2/5 302/2/5
f 307/2/5 303/2/5 306/2/5
f 312/2/5 309/2/5 308/2/5
f 313/2/5 309/2/5 312/2/5
f 315/2/5 311/2/5 310/2/5
f 316/2/5 311/2/5 315/2/5
f 317/2/5 315/2/5 314/2/5
f 318/2/5 315/2/5 317/2/5
f 321/2/5 320/2/5 319/2/5
f 322/2/5 320/2/5 321/2/5
f 327/2/5 324/2/5 323/2/5
f 328/2/5 324/2/5 327/2/5
f 329/2/5 326/2/5 325/2/5
f 330/2/5 326/2/5 329/2/5
f 333/2/5 332/2/5 331/2/5
f 334/2/5 332/2/5 333/2/5
f 337/1/5 336/1/5 335/1/5
f 338/1/5 336/1/5 337/1/5
f 339/1/6 340/1/6 342/1/6
f 342/1/6 340/1/6 343/1/6
f 341/1/6 342/1/6 346/1/6
f 343/1/6 344/1/6 346/1/6
f 342/1/6 343/1/6 346/1/6
f 346/1/6 344/1/6 347/1/6
f 345/1/6 346/1/6 349/1/6
f 347/1/6 348/1/6 349/1/6
f 346/1/6 347/1/6 349/1/6
f 349/1/6 348/1/6 350/1/6
f 350/1/6 348/1/6 351/1/6
f 351/1/6 348/1/6 352/1/6
f 350/1/6 351/1/6 353/1/6
f 353/1/6 351/1/6 354/1/6
f 354/1/6 351/1/6 355/1/6
f 355/1/6 351/1/6 356/1/6
f 354/1/6 355/1/6 357/1/6
f 357/1/6 355/1/6 358/1/6
f 359/1/6 360/1/6 364/1/6
f 364/1/6 360/1/6 365/1/6
f 361/1/6 362/1/6 366/1/6
f 366/1/6 362/1/6 367/1/6
f 363/1/6 364/1/6 369/1/6
f 369/1/6 364/1/6 370/1/6
f 367/1/6 368/1/6 371/1/6
f 371/1/6 368/1/6 372/1/6
f 373/1/6 374/1/6 377/1/6
f 377/1/6 374/1/6 378/1/6
f 375/1/6 376/1/6 381/1/6
f 381/1/6 376/1/6 382/1/6
f 378/1/6 379/1/6 383/1/6
f 383/1/6 379/1/6 384/1/6
f 380/1/6 381/1/6 385/1/6
f 385/1/6 381/1/6 386/1/6
f 387/2/6 388/2/6 391/2/6
f 391/2/6 388/2/6 392/2/6
f 389/2/6 390/2/6 393/2/6
f 393/2/6 390/2/6 394/2/6
f 395/2/6 396/2/6 399/2/6
f 399/2/6 396/2/6 400/2/6
f 397/2/6 398/2/6 401/2/6
f 401/2/6 398/2/6 402/2/6
f 403/2/6 404/2/6 406/2/6
f 406/2/6 404/2/6 407/2/6
f 405/2/6 406/2/6 409/2/6
f 409/2/6 406/2/6 410/2/6
f 407/2/6 408/2/6 411/2/6
f 411/2/6 408/2/6 412/2/6
f 410/2/6 411/2/6 413/2/6
f 413/2/6 411/2/6 414/2/6
f 415/1/6 416/1/6 417/1/6
f 417/1/6 416/1/6 418/1/6
