# MagicaVoxel @ Ephtracy

# group
g BanniereCross

# material
mtllib BanniereCross.mtl
usemtl palette

# normals
vn -1 0 0
vn 1 0 0
vn 0 0 1
vn 0 0 -1
vn 0 -1 0
vn 0 1 0

# texcoords
vt 0.0683594 0.5
vt 0.783203 0.5
vt 0.982422 0.5

# verts
v 1 121 27
v 1 121 -30
v 1 123 27
v 1 123 -30
v 2 120 27
v 2 120 -30
v 2 121 27
v 2 121 -30
v 2 123 27
v 2 123 -30
v 2 124 27
v 2 124 -30
v 3 23 10
v 3 23 -10
v 3 24 13
v 3 24 10
v 3 24 -10
v 3 24 -13
v 3 25 16
v 3 25 13
v 3 25 -13
v 3 25 -17
v 3 26 18
v 3 26 16
v 3 26 -17
v 3 26 -18
v 3 27 -18
v 3 27 -19
v 3 28 19
v 3 28 18
v 3 28 -19
v 3 28 -20
v 3 30 20
v 3 30 19
v 3 30 -20
v 3 30 -21
v 3 33 21
v 3 33 20
v 3 33 -21
v 3 33 -22
v 3 36 -0
v 3 36 -3
v 3 37 1
v 3 37 -0
v 3 37 -3
v 3 37 -4
v 3 38 6
v 3 38 1
v 3 38 -4
v 3 38 -9
v 3 39 7
v 3 39 6
v 3 39 -9
v 3 39 -10
v 3 40 5
v 3 40 3
v 3 40 -6
v 3 40 -8
v 3 41 7
v 3 41 5
v 3 41 -8
v 3 41 -10
v 3 42 3
v 3 42 2
v 3 42 -5
v 3 42 -6
v 3 44 2
v 3 44 1
v 3 44 -4
v 3 44 -5
v 3 66 14
v 3 66 12
v 3 66 -16
v 3 66 -18
v 3 67 15
v 3 67 14
v 3 67 -18
v 3 67 -19
v 3 68 13
v 3 68 12
v 3 68 -16
v 3 68 -17
v 3 70 13
v 3 70 11
v 3 70 -15
v 3 70 -17
v 3 71 11
v 3 71 9
v 3 71 2
v 3 71 1
v 3 71 -4
v 3 71 -5
v 3 71 -13
v 3 71 -15
v 3 72 16
v 3 72 15
v 3 72 9
v 3 72 2
v 3 72 -5
v 3 72 -13
v 3 72 -19
v 3 72 -20
v 3 73 17
v 3 73 16
v 3 73 -20
v 3 73 -21
v 3 75 17
v 3 75 16
v 3 75 -20
v 3 75 -21
v 3 76 16
v 3 76 15
v 3 76 9
v 3 76 2
v 3 76 -5
v 3 76 -13
v 3 76 -19
v 3 76 -20
v 3 77 11
v 3 77 9
v 3 77 2
v 3 77 1
v 3 77 -4
v 3 77 -5
v 3 77 -13
v 3 77 -15
v 3 78 13
v 3 78 11
v 3 78 -15
v 3 78 -17
v 3 80 13
v 3 80 12
v 3 80 -16
v 3 80 -17
v 3 81 15
v 3 81 14
v 3 81 -18
v 3 81 -19
v 3 82 14
v 3 82 12
v 3 82 -16
v 3 82 -18
v 3 106 2
v 3 106 1
v 3 106 -4
v 3 106 -5
v 3 108 3
v 3 108 2
v 3 108 -5
v 3 108 -6
v 3 109 7
v 3 109 5
v 3 109 -8
v 3 109 -10
v 3 110 5
v 3 110 3
v 3 110 -6
v 3 110 -8
v 3 111 7
v 3 111 6
v 3 111 -9
v 3 111 -10
v 3 112 6
v 3 112 1
v 3 112 -4
v 3 112 -9
v 3 113 1
v 3 113 -0
v 3 113 -3
v 3 113 -4
v 3 114 -0
v 3 114 -3
v 3 120 21
v 3 120 -22
v 4 16 10
v 4 16 -11
v 4 17 16
v 4 17 10
v 4 17 -11
v 4 17 -16
v 4 18 20
v 4 18 16
v 4 18 -16
v 4 18 -20
v 4 19 -20
v 4 19 -23
v 4 20 22
v 4 20 20
v 4 20 -23
v 4 20 -24
v 4 22 -24
v 4 22 -25
v 4 23 23
v 4 23 22
v 4 23 10
v 4 23 -10
v 4 24 13
v 4 24 10
v 4 24 -10
v 4 24 -13
v 4 25 16
v 4 25 13
v 4 25 -13
v 4 25 -17
v 4 26 18
v 4 26 16
v 4 26 -17
v 4 26 -18
v 4 27 -18
v 4 27 -19
v 4 28 19
v 4 28 18
v 4 28 -19
v 4 28 -20
v 4 28 -25
v 4 28 -26
v 4 29 24
v 4 29 23
v 4 30 20
v 4 30 19
v 4 30 -20
v 4 30 -21
v 4 33 21
v 4 33 20
v 4 33 -21
v 4 33 -22
v 4 36 25
v 4 36 24
v 4 36 -26
v 4 36 -27
v 4 45 26
v 4 45 25
v 4 47 -27
v 4 47 -28
v 4 63 27
v 4 63 26
v 4 67 -28
v 4 67 -29
v 4 93 -29
v 4 93 -30
v 4 120 27
v 4 120 21
v 4 120 -22
v 4 120 -30
v 5 16 10
v 5 16 -11
v 5 17 16
v 5 17 10
v 5 17 -11
v 5 17 -16
v 5 18 20
v 5 18 16
v 5 18 -16
v 5 18 -20
v 5 19 -20
v 5 19 -23
v 5 20 22
v 5 20 20
v 5 20 -23
v 5 20 -24
v 5 22 -24
v 5 22 -25
v 5 23 23
v 5 23 22
v 5 28 -25
v 5 28 -26
v 5 29 24
v 5 29 23
v 5 36 25
v 5 36 24
v 5 36 -26
v 5 36 -27
v 5 45 26
v 5 45 25
v 5 47 -27
v 5 47 -28
v 5 63 27
v 5 63 26
v 5 67 -28
v 5 67 -29
v 5 93 -29
v 5 93 -30
v 5 120 27
v 5 120 -30
v 5 124 27
v 5 124 -30
v 1 121 27
v 1 123 27
v 2 120 27
v 2 121 27
v 2 123 27
v 2 124 27
v 4 63 27
v 4 120 27
v 5 63 27
v 5 120 27
v 5 124 27
v 4 45 26
v 4 63 26
v 5 45 26
v 5 63 26
v 4 36 25
v 4 45 25
v 5 36 25
v 5 45 25
v 4 29 24
v 4 36 24
v 5 29 24
v 5 36 24
v 4 23 23
v 4 29 23
v 5 23 23
v 5 29 23
v 4 20 22
v 4 23 22
v 5 20 22
v 5 23 22
v 3 33 21
v 3 120 21
v 4 33 21
v 4 120 21
v 3 30 20
v 3 33 20
v 4 18 20
v 4 20 20
v 4 30 20
v 4 33 20
v 5 18 20
v 5 20 20
v 3 28 19
v 3 30 19
v 4 28 19
v 4 30 19
v 3 26 18
v 3 28 18
v 4 26 18
v 4 28 18
v 3 25 16
v 3 26 16
v 4 17 16
v 4 18 16
v 4 25 16
v 4 26 16
v 5 17 16
v 5 18 16
v 3 24 13
v 3 25 13
v 4 24 13
v 4 25 13
v 3 23 10
v 3 24 10
v 4 16 10
v 4 17 10
v 4 23 10
v 4 24 10
v 5 16 10
v 5 17 10
v 3 23 -10
v 3 24 -10
v 4 23 -10
v 4 24 -10
v 4 16 -11
v 4 17 -11
v 5 16 -11
v 5 17 -11
v 3 24 -13
v 3 25 -13
v 4 24 -13
v 4 25 -13
v 4 17 -16
v 4 18 -16
v 5 17 -16
v 5 18 -16
v 3 25 -17
v 3 26 -17
v 4 25 -17
v 4 26 -17
v 3 26 -18
v 3 27 -18
v 4 26 -18
v 4 27 -18
v 3 27 -19
v 3 28 -19
v 4 27 -19
v 4 28 -19
v 3 28 -20
v 3 30 -20
v 4 18 -20
v 4 19 -20
v 4 28 -20
v 4 30 -20
v 5 18 -20
v 5 19 -20
v 3 30 -21
v 3 33 -21
v 4 30 -21
v 4 33 -21
v 3 33 -22
v 3 120 -22
v 4 33 -22
v 4 120 -22
v 4 19 -23
v 4 20 -23
v 5 19 -23
v 5 20 -23
v 4 20 -24
v 4 22 -24
v 5 20 -24
v 5 22 -24
v 4 22 -25
v 4 28 -25
v 5 22 -25
v 5 28 -25
v 4 28 -26
v 4 36 -26
v 5 28 -26
v 5 36 -26
v 4 36 -27
v 4 47 -27
v 5 36 -27
v 5 47 -27
v 4 47 -28
v 4 67 -28
v 5 47 -28
v 5 67 -28
v 4 67 -29
v 4 93 -29
v 5 67 -29
v 5 93 -29
v 1 121 -30
v 1 123 -30
v 2 120 -30
v 2 121 -30
v 2 123 -30
v 2 124 -30
v 4 93 -30
v 4 120 -30
v 5 93 -30
v 5 120 -30
v 5 124 -30
v 4 16 10
v 5 16 10
v 4 16 -11
v 5 16 -11
v 4 17 16
v 5 17 16
v 4 17 10
v 5 17 10
v 4 17 -11
v 5 17 -11
v 4 17 -16
v 5 17 -16
v 4 18 20
v 5 18 20
v 4 18 16
v 5 18 16
v 4 18 -16
v 5 18 -16
v 4 18 -20
v 5 18 -20
v 4 19 -20
v 5 19 -20
v 4 19 -23
v 5 19 -23
v 4 20 22
v 5 20 22
v 4 20 20
v 5 20 20
v 4 20 -23
v 5 20 -23
v 4 20 -24
v 5 20 -24
v 4 22 -24
v 5 22 -24
v 4 22 -25
v 5 22 -25
v 4 23 23
v 5 23 23
v 4 23 22
v 5 23 22
v 3 23 10
v 4 23 10
v 3 23 -10
v 4 23 -10
v 3 24 13
v 4 24 13
v 3 24 10
v 4 24 10
v 3 24 -10
v 4 24 -10
v 3 24 -13
v 4 24 -13
v 3 25 16
v 4 25 16
v 3 25 13
v 4 25 13
v 3 25 -13
v 4 25 -13
v 3 25 -17
v 4 25 -17
v 3 26 18
v 4 26 18
v 3 26 16
v 4 26 16
v 3 26 -17
v 4 26 -17
v 3 26 -18
v 4 26 -18
v 3 27 -18
v 4 27 -18
v 3 27 -19
v 4 27 -19
v 3 28 19
v 4 28 19
v 3 28 18
v 4 28 18
v 3 28 -19
v 4 28 -19
v 3 28 -20
v 4 28 -20
v 4 28 -25
v 5 28 -25
v 4 28 -26
v 5 28 -26
v 4 29 24
v 5 29 24
v 4 29 23
v 5 29 23
v 3 30 20
v 4 30 20
v 3 30 19
v 4 30 19
v 3 30 -20
v 4 30 -20
v 3 30 -21
v 4 30 -21
v 3 33 21
v 4 33 21
v 3 33 20
v 4 33 20
v 3 33 -21
v 4 33 -21
v 3 33 -22
v 4 33 -22
v 4 36 25
v 5 36 25
v 4 36 24
v 5 36 24
v 4 36 -26
v 5 36 -26
v 4 36 -27
v 5 36 -27
v 4 45 26
v 5 45 26
v 4 45 25
v 5 45 25
v 4 47 -27
v 5 47 -27
v 4 47 -28
v 5 47 -28
v 4 63 27
v 5 63 27
v 4 63 26
v 5 63 26
v 4 67 -28
v 5 67 -28
v 4 67 -29
v 5 67 -29
v 4 93 -29
v 5 93 -29
v 4 93 -30
v 5 93 -30
v 2 120 27
v 4 120 27
v 3 120 21
v 4 120 21
v 3 120 -22
v 4 120 -22
v 2 120 -30
v 4 120 -30
v 1 121 27
v 2 121 27
v 1 121 -30
v 2 121 -30
v 1 123 27
v 2 123 27
v 1 123 -30
v 2 123 -30
v 2 124 27
v 5 124 27
v 2 124 -30
v 5 124 -30

# faces
f 3/3/1 2/3/1 1/3/1
f 4/3/1 2/3/1 3/3/1
f 7/3/1 6/3/1 5/3/1
f 8/3/1 6/3/1 7/3/1
f 11/3/1 10/3/1 9/3/1
f 12/3/1 10/3/1 11/3/1
f 16/2/1 14/2/1 13/2/1
f 17/2/1 14/2/1 16/2/1
f 20/2/1 16/2/1 15/2/1
f 20/2/1 18/2/1 17/2/1
f 20/2/1 17/2/1 16/2/1
f 21/2/1 18/2/1 20/2/1
f 24/2/1 20/2/1 19/2/1
f 24/2/1 22/2/1 21/2/1
f 24/2/1 21/2/1 20/2/1
f 25/2/1 22/2/1 24/2/1
f 27/2/1 24/2/1 23/2/1
f 27/2/1 26/2/1 25/2/1
f 27/2/1 25/2/1 24/2/1
f 30/2/1 27/2/1 23/2/1
f 30/2/1 28/2/1 27/2/1
f 31/2/1 28/2/1 30/2/1
f 34/2/1 30/2/1 29/2/1
f 34/2/1 32/2/1 31/2/1
f 34/2/1 31/2/1 30/2/1
f 35/2/1 32/2/1 34/2/1
f 38/2/1 34/2/1 33/2/1
f 38/2/1 36/2/1 35/2/1
f 38/2/1 35/2/1 34/2/1
f 39/2/1 36/2/1 38/2/1
f 41/2/1 38/2/1 37/2/1
f 41/2/1 40/2/1 39/2/1
f 41/2/1 39/2/1 38/2/1
f 42/2/1 40/2/1 41/2/1
f 43/2/1 41/2/1 37/2/1
f 44/1/1 42/1/1 41/1/1
f 44/2/1 41/2/1 43/2/1
f 45/2/1 40/2/1 42/2/1
f 45/1/1 42/1/1 44/1/1
f 46/2/1 40/2/1 45/2/1
f 47/2/1 43/2/1 37/2/1
f 48/1/1 44/1/1 43/1/1
f 48/2/1 43/2/1 47/2/1
f 48/1/1 45/1/1 44/1/1
f 48/1/1 46/1/1 45/1/1
f 49/2/1 40/2/1 46/2/1
f 49/1/1 46/1/1 48/1/1
f 50/2/1 40/2/1 49/2/1
f 51/2/1 47/2/1 37/2/1
f 52/1/1 48/1/1 47/1/1
f 52/2/1 47/2/1 51/2/1
f 52/1/1 49/1/1 48/1/1
f 52/1/1 50/1/1 49/1/1
f 53/2/1 40/2/1 50/2/1
f 53/1/1 50/1/1 52/1/1
f 54/2/1 40/2/1 53/2/1
f 55/1/1 52/1/1 51/1/1
f 55/1/1 53/1/1 52/1/1
f 55/1/1 54/1/1 53/1/1
f 56/1/1 54/1/1 55/1/1
f 57/1/1 54/1/1 56/1/1
f 58/1/1 54/1/1 57/1/1
f 59/2/1 51/2/1 37/2/1
f 59/1/1 55/1/1 51/1/1
f 60/2/1 56/2/1 55/2/1
f 60/1/1 55/1/1 59/1/1
f 61/1/1 54/1/1 58/1/1
f 61/2/1 58/2/1 57/2/1
f 62/2/1 40/2/1 54/2/1
f 62/1/1 54/1/1 61/1/1
f 63/2/1 56/2/1 60/2/1
f 63/2/1 60/2/1 59/2/1
f 63/1/1 57/1/1 56/1/1
f 64/1/1 57/1/1 63/1/1
f 65/1/1 57/1/1 64/1/1
f 66/2/1 61/2/1 57/2/1
f 66/1/1 57/1/1 65/1/1
f 66/2/1 62/2/1 61/2/1
f 67/1/1 65/1/1 64/1/1
f 67/2/1 64/2/1 63/2/1
f 68/1/1 65/1/1 67/1/1
f 69/1/1 65/1/1 68/1/1
f 70/2/1 66/2/1 65/2/1
f 70/1/1 65/1/1 69/1/1
f 71/2/1 59/2/1 37/2/1
f 71/2/1 63/2/1 59/2/1
f 71/2/1 67/2/1 63/2/1
f 71/2/1 68/2/1 67/2/1
f 72/2/1 68/2/1 71/2/1
f 73/2/1 62/2/1 66/2/1
f 73/2/1 40/2/1 62/2/1
f 73/2/1 66/2/1 70/2/1
f 73/2/1 70/2/1 69/2/1
f 74/2/1 40/2/1 73/2/1
f 75/2/1 71/2/1 37/2/1
f 76/1/1 72/1/1 71/1/1
f 76/2/1 71/2/1 75/2/1
f 77/2/1 40/2/1 74/2/1
f 77/1/1 74/1/1 73/1/1
f 78/2/1 40/2/1 77/2/1
f 79/1/1 72/1/1 76/1/1
f 79/1/1 76/1/1 75/1/1
f 80/2/1 68/2/1 72/2/1
f 80/1/1 72/1/1 79/1/1
f 81/2/1 73/2/1 69/2/1
f 81/1/1 78/1/1 77/1/1
f 81/1/1 77/1/1 73/1/1
f 82/1/1 78/1/1 81/1/1
f 83/1/1 79/1/1 75/1/1
f 83/2/1 80/2/1 79/2/1
f 84/2/1 68/2/1 80/2/1
f 84/2/1 80/2/1 83/2/1
f 85/2/1 82/2/1 81/2/1
f 85/2/1 81/2/1 69/2/1
f 86/1/1 78/1/1 82/1/1
f 86/2/1 82/2/1 85/2/1
f 87/2/1 68/2/1 84/2/1
f 87/1/1 84/1/1 83/1/1
f 88/2/1 68/2/1 87/2/1
f 89/2/1 68/2/1 88/2/1
f 90/1/1 69/1/1 68/1/1
f 90/2/1 68/2/1 89/2/1
f 91/2/1 85/2/1 69/2/1
f 91/1/1 69/1/1 90/1/1
f 92/2/1 85/2/1 91/2/1
f 93/2/1 85/2/1 92/2/1
f 94/1/1 86/1/1 85/1/1
f 94/2/1 85/2/1 93/2/1
f 95/2/1 75/2/1 37/2/1
f 96/1/1 83/1/1 75/1/1
f 96/2/1 75/2/1 95/2/1
f 96/1/1 87/1/1 83/1/1
f 96/1/1 88/1/1 87/1/1
f 97/2/1 89/2/1 88/2/1
f 97/1/1 88/1/1 96/1/1
f 98/1/1 90/1/1 89/1/1
f 98/2/1 89/2/1 97/2/1
f 98/1/1 92/1/1 91/1/1
f 98/1/1 91/1/1 90/1/1
f 99/2/1 93/2/1 92/2/1
f 99/1/1 92/1/1 98/1/1
f 100/1/1 94/1/1 93/1/1
f 100/2/1 93/2/1 99/2/1
f 101/1/1 86/1/1 94/1/1
f 101/1/1 94/1/1 100/1/1
f 101/2/1 40/2/1 78/2/1
f 101/1/1 78/1/1 86/1/1
f 102/2/1 40/2/1 101/2/1
f 103/2/1 95/2/1 37/2/1
f 104/1/1 97/1/1 96/1/1
f 104/2/1 95/2/1 103/2/1
f 104/1/1 100/1/1 99/1/1
f 104/1/1 102/1/1 101/1/1
f 104/1/1 101/1/1 100/1/1
f 104/1/1 98/1/1 97/1/1
f 104/1/1 96/1/1 95/1/1
f 104/1/1 99/1/1 98/1/1
f 105/2/1 40/2/1 102/2/1
f 105/1/1 102/1/1 104/1/1
f 106/2/1 40/2/1 105/2/1
f 107/2/1 103/2/1 37/2/1
f 107/1/1 104/1/1 103/1/1
f 107/1/1 106/1/1 105/1/1
f 107/1/1 105/1/1 104/1/1
f 108/1/1 106/1/1 107/1/1
f 109/1/1 106/1/1 108/1/1
f 110/2/1 40/2/1 106/2/1
f 110/1/1 106/1/1 109/1/1
f 111/1/1 109/1/1 108/1/1
f 111/2/1 108/2/1 107/2/1
f 112/1/1 109/1/1 111/1/1
f 113/1/1 109/1/1 112/1/1
f 114/1/1 109/1/1 113/1/1
f 115/1/1 109/1/1 114/1/1
f 116/1/1 109/1/1 115/1/1
f 117/1/1 109/1/1 116/1/1
f 118/2/1 110/2/1 109/2/1
f 118/1/1 109/1/1 117/1/1
f 119/1/1 113/1/1 112/1/1
f 120/2/1 114/2/1 113/2/1
f 120/1/1 113/1/1 119/1/1
f 121/1/1 115/1/1 114/1/1
f 121/2/1 114/2/1 120/2/1
f 122/1/1 115/1/1 121/1/1
f 123/1/1 115/1/1 122/1/1
f 124/2/1 116/2/1 115/2/1
f 124/1/1 115/1/1 123/1/1
f 125/1/1 117/1/1 116/1/1
f 125/2/1 116/2/1 124/2/1
f 126/1/1 117/1/1 125/1/1
f 127/1/1 119/1/1 112/1/1
f 128/2/1 120/2/1 119/2/1
f 128/1/1 119/1/1 127/1/1
f 128/2/1 121/2/1 120/2/1
f 128/2/1 122/2/1 121/2/1
f 129/2/1 124/2/1 123/2/1
f 129/1/1 117/1/1 126/1/1
f 129/2/1 126/2/1 125/2/1
f 129/2/1 125/2/1 124/2/1
f 130/1/1 117/1/1 129/1/1
f 131/2/1 128/2/1 127/2/1
f 131/1/1 127/1/1 112/1/1
f 132/2/1 128/2/1 131/2/1
f 133/2/1 130/2/1 129/2/1
f 134/1/1 117/1/1 130/1/1
f 134/2/1 130/2/1 133/2/1
f 135/2/1 112/2/1 111/2/1
f 135/1/1 131/1/1 112/1/1
f 135/1/1 132/1/1 131/1/1
f 136/1/1 132/1/1 135/1/1
f 137/1/1 117/1/1 134/1/1
f 137/1/1 134/1/1 133/1/1
f 138/2/1 118/2/1 117/2/1
f 138/1/1 117/1/1 137/1/1
f 139/1/1 132/1/1 136/1/1
f 139/2/1 136/2/1 135/2/1
f 140/2/1 128/2/1 132/2/1
f 140/1/1 132/1/1 139/1/1
f 141/2/1 133/2/1 129/2/1
f 141/1/1 137/1/1 133/1/1
f 142/2/1 138/2/1 137/2/1
f 142/1/1 137/1/1 141/1/1
f 143/2/1 122/2/1 128/2/1
f 143/2/1 128/2/1 140/2/1
f 143/2/1 140/2/1 139/2/1
f 144/1/1 123/1/1 122/1/1
f 144/2/1 122/2/1 143/2/1
f 145/2/1 142/2/1 141/2/1
f 145/1/1 123/1/1 144/1/1
f 145/2/1 129/2/1 123/2/1
f 145/2/1 141/2/1 129/2/1
f 146/2/1 142/2/1 145/2/1
f 147/2/1 143/2/1 139/2/1
f 148/1/1 144/1/1 143/1/1
f 148/2/1 143/2/1 147/2/1
f 148/1/1 145/1/1 144/1/1
f 148/1/1 146/1/1 145/1/1
f 149/2/1 142/2/1 146/2/1
f 149/1/1 146/1/1 148/1/1
f 150/2/1 142/2/1 149/2/1
f 151/2/1 147/2/1 139/2/1
f 152/2/1 147/2/1 151/2/1
f 153/2/1 142/2/1 150/2/1
f 154/2/1 142/2/1 153/2/1
f 155/2/1 147/2/1 152/2/1
f 155/1/1 152/1/1 151/1/1
f 156/1/1 148/1/1 147/1/1
f 156/2/1 147/2/1 155/2/1
f 156/1/1 149/1/1 148/1/1
f 156/1/1 150/1/1 149/1/1
f 157/2/1 153/2/1 150/2/1
f 157/1/1 150/1/1 156/1/1
f 158/1/1 154/1/1 153/1/1
f 158/2/1 153/2/1 157/2/1
f 159/1/1 155/1/1 151/1/1
f 159/1/1 156/1/1 155/1/1
f 159/1/1 158/1/1 157/1/1
f 159/2/1 151/2/1 139/2/1
f 159/1/1 157/1/1 156/1/1
f 160/1/1 158/1/1 159/1/1
f 161/1/1 154/1/1 158/1/1
f 161/1/1 158/1/1 160/1/1
f 162/2/1 142/2/1 154/2/1
f 162/1/1 154/1/1 161/1/1
f 163/1/1 161/1/1 160/1/1
f 163/2/1 160/2/1 159/2/1
f 164/1/1 161/1/1 163/1/1
f 165/1/1 161/1/1 164/1/1
f 166/2/1 162/2/1 161/2/1
f 166/1/1 161/1/1 165/1/1
f 167/1/1 165/1/1 164/1/1
f 167/2/1 164/2/1 163/2/1
f 168/1/1 165/1/1 167/1/1
f 169/1/1 165/1/1 168/1/1
f 170/2/1 166/2/1 165/2/1
f 170/1/1 165/1/1 169/1/1
f 171/1/1 169/1/1 168/1/1
f 171/2/1 168/2/1 167/2/1
f 172/2/1 170/2/1 169/2/1
f 172/1/1 169/1/1 171/1/1
f 173/2/1 107/2/1 37/2/1
f 173/2/1 111/2/1 107/2/1
f 173/2/1 172/2/1 171/2/1
f 173/2/1 171/2/1 167/2/1
f 173/2/1 167/2/1 163/2/1
f 173/2/1 139/2/1 135/2/1
f 173/2/1 163/2/1 159/2/1
f 173/2/1 159/2/1 139/2/1
f 173/2/1 135/2/1 111/2/1
f 174/2/1 40/2/1 110/2/1
f 174/2/1 172/2/1 173/2/1
f 174/2/1 170/2/1 172/2/1
f 174/2/1 162/2/1 166/2/1
f 174/2/1 142/2/1 162/2/1
f 174/2/1 110/2/1 118/2/1
f 174/2/1 118/2/1 138/2/1
f 174/2/1 166/2/1 170/2/1
f 174/2/1 138/2/1 142/2/1
f 178/2/1 176/2/1 175/2/1
f 179/2/1 176/2/1 178/2/1
f 182/2/1 178/2/1 177/2/1
f 182/2/1 180/2/1 179/2/1
f 182/2/1 179/2/1 178/2/1
f 183/2/1 180/2/1 182/2/1
f 185/2/1 182/2/1 181/2/1
f 185/2/1 184/2/1 183/2/1
f 185/2/1 183/2/1 182/2/1
f 188/2/1 185/2/1 181/2/1
f 188/2/1 186/2/1 185/2/1
f 189/2/1 186/2/1 188/2/1
f 191/2/1 188/2/1 187/2/1
f 191/2/1 190/2/1 189/2/1
f 191/2/1 189/2/1 188/2/1
f 194/2/1 191/2/1 187/2/1
f 194/2/1 192/2/1 191/2/1
f 195/2/1 192/2/1 194/2/1
f 196/2/1 192/2/1 195/2/1
f 197/2/1 194/2/1 193/2/1
f 197/2/1 195/2/1 194/2/1
f 198/2/1 195/2/1 197/2/1
f 199/2/1 192/2/1 196/2/1
f 200/2/1 192/2/1 199/2/1
f 201/2/1 197/2/1 193/2/1
f 202/2/1 197/2/1 201/2/1
f 203/2/1 192/2/1 200/2/1
f 204/2/1 192/2/1 203/2/1
f 205/2/1 201/2/1 193/2/1
f 206/2/1 201/2/1 205/2/1
f 207/2/1 192/2/1 204/2/1
f 208/2/1 192/2/1 207/2/1
f 209/2/1 192/2/1 208/2/1
f 210/2/1 192/2/1 209/2/1
f 211/2/1 205/2/1 193/2/1
f 212/2/1 205/2/1 211/2/1
f 213/2/1 192/2/1 210/2/1
f 214/2/1 192/2/1 213/2/1
f 215/2/1 192/2/1 214/2/1
f 218/2/1 211/2/1 193/2/1
f 219/2/1 211/2/1 218/2/1
f 219/2/1 218/2/1 217/2/1
f 220/2/1 211/2/1 219/2/1
f 221/2/1 216/2/1 215/2/1
f 221/2/1 215/2/1 214/2/1
f 222/2/1 216/2/1 221/2/1
f 223/2/1 219/2/1 217/2/1
f 224/2/1 219/2/1 223/2/1
f 225/2/1 216/2/1 222/2/1
f 226/2/1 216/2/1 225/2/1
f 228/2/1 223/2/1 217/2/1
f 229/2/1 216/2/1 226/2/1
f 232/2/1 228/2/1 227/2/1
f 233/2/1 230/2/1 229/2/1
f 236/2/1 232/2/1 231/2/1
f 237/2/1 234/2/1 233/2/1
f 239/2/1 238/2/1 237/2/1
f 241/2/1 236/2/1 235/2/1
f 242/2/1 223/2/1 228/2/1
f 242/2/1 236/2/1 241/2/1
f 242/2/1 228/2/1 232/2/1
f 242/2/1 232/2/1 236/2/1
f 243/2/1 240/2/1 239/2/1
f 243/2/1 229/2/1 226/2/1
f 243/2/1 237/2/1 233/2/1
f 243/2/1 239/2/1 237/2/1
f 243/2/1 233/2/1 229/2/1
f 244/2/1 240/2/1 243/2/1
f 245/2/2 246/2/2 248/2/2
f 248/2/2 246/2/2 249/2/2
f 247/2/2 248/2/2 252/2/2
f 249/2/2 250/2/2 252/2/2
f 248/2/2 249/2/2 252/2/2
f 252/2/2 250/2/2 253/2/2
f 251/2/2 252/2/2 255/2/2
f 253/2/2 254/2/2 255/2/2
f 252/2/2 253/2/2 255/2/2
f 251/2/2 255/2/2 258/2/2
f 255/2/2 256/2/2 258/2/2
f 258/2/2 256/2/2 259/2/2
f 257/2/2 258/2/2 261/2/2
f 259/2/2 260/2/2 261/2/2
f 258/2/2 259/2/2 261/2/2
f 257/2/2 261/2/2 264/2/2
f 261/2/2 262/2/2 264/2/2
f 264/2/2 262/2/2 265/2/2
f 263/2/2 264/2/2 265/2/2
f 263/2/2 265/2/2 268/2/2
f 265/2/2 266/2/2 268/2/2
f 267/2/2 268/2/2 270/2/2
f 268/2/2 266/2/2 271/2/2
f 270/2/2 268/2/2 271/2/2
f 269/2/2 270/2/2 274/2/2
f 271/2/2 272/2/2 274/2/2
f 270/2/2 271/2/2 274/2/2
f 274/2/2 272/2/2 275/2/2
f 273/2/2 274/2/2 275/2/2
f 273/2/2 275/2/2 278/2/2
f 275/2/2 276/2/2 278/2/2
f 278/2/2 276/2/2 279/2/2
f 277/2/2 278/2/2 279/2/2
f 279/2/2 280/2/2 281/2/2
f 277/2/2 279/2/2 283/2/2
f 281/2/2 282/2/2 283/2/2
f 279/2/2 281/2/2 283/2/2
f 283/2/2 282/2/2 284/2/2
f 283/3/2 284/3/2 285/3/2
f 285/3/2 284/3/2 286/3/2
f 290/3/3 288/3/3 287/3/3
f 291/3/3 288/3/3 290/3/3
f 294/3/3 290/3/3 289/3/3
f 294/3/3 292/3/3 291/3/3
f 294/3/3 291/3/3 290/3/3
f 295/2/3 294/2/3 293/2/3
f 296/3/3 292/3/3 294/3/3
f 296/2/3 294/2/3 295/2/3
f 297/3/3 292/3/3 296/3/3
f 300/2/3 299/2/3 298/2/3
f 301/2/3 299/2/3 300/2/3
f 304/2/3 303/2/3 302/2/3
f 305/2/3 303/2/3 304/2/3
f 308/2/3 307/2/3 306/2/3
f 309/2/3 307/2/3 308/2/3
f 312/2/3 311/2/3 310/2/3
f 313/2/3 311/2/3 312/2/3
f 316/2/3 315/2/3 314/2/3
f 317/2/3 315/2/3 316/2/3
f 320/2/3 319/2/3 318/2/3
f 321/2/3 319/2/3 320/2/3
f 326/2/3 323/2/3 322/2/3
f 327/2/3 323/2/3 326/2/3
f 328/2/3 325/2/3 324/2/3
f 329/2/3 325/2/3 328/2/3
f 332/2/3 331/2/3 330/2/3
f 333/2/3 331/2/3 332/2/3
f 336/2/3 335/2/3 334/2/3
f 337/2/3 335/2/3 336/2/3
f 342/2/3 339/2/3 338/2/3
f 343/2/3 339/2/3 342/2/3
f 344/2/3 341/2/3 340/2/3
f 345/2/3 341/2/3 344/2/3
f 348/2/3 347/2/3 346/2/3
f 349/2/3 347/2/3 348/2/3
f 354/2/3 351/2/3 350/2/3
f 355/2/3 351/2/3 354/2/3
f 356/2/3 353/2/3 352/2/3
f 357/2/3 353/2/3 356/2/3
f 358/2/4 359/2/4 360/2/4
f 360/2/4 359/2/4 361/2/4
f 362/2/4 363/2/4 364/2/4
f 364/2/4 363/2/4 365/2/4
f 366/2/4 367/2/4 368/2/4
f 368/2/4 367/2/4 369/2/4
f 370/2/4 371/2/4 372/2/4
f 372/2/4 371/2/4 373/2/4
f 374/2/4 375/2/4 376/2/4
f 376/2/4 375/2/4 377/2/4
f 378/2/4 379/2/4 380/2/4
f 380/2/4 379/2/4 381/2/4
f 382/2/4 383/2/4 384/2/4
f 384/2/4 383/2/4 385/2/4
f 386/2/4 387/2/4 390/2/4
f 390/2/4 387/2/4 391/2/4
f 388/2/4 389/2/4 392/2/4
f 392/2/4 389/2/4 393/2/4
f 394/2/4 395/2/4 396/2/4
f 396/2/4 395/2/4 397/2/4
f 398/2/4 399/2/4 400/2/4
f 400/2/4 399/2/4 401/2/4
f 402/2/4 403/2/4 404/2/4
f 404/2/4 403/2/4 405/2/4
f 406/2/4 407/2/4 408/2/4
f 408/2/4 407/2/4 409/2/4
f 410/2/4 411/2/4 412/2/4
f 412/2/4 411/2/4 413/2/4
f 414/2/4 415/2/4 416/2/4
f 416/2/4 415/2/4 417/2/4
f 418/2/4 419/2/4 420/2/4
f 420/2/4 419/2/4 421/2/4
f 422/2/4 423/2/4 424/2/4
f 424/2/4 423/2/4 425/2/4
f 426/2/4 427/2/4 428/2/4
f 428/2/4 427/2/4 429/2/4
f 430/3/4 431/3/4 433/3/4
f 433/3/4 431/3/4 434/3/4
f 432/3/4 433/3/4 437/3/4
f 434/3/4 435/3/4 437/3/4
f 433/3/4 434/3/4 437/3/4
f 436/2/4 437/2/4 438/2/4
f 437/3/4 435/3/4 439/3/4
f 438/2/4 437/2/4 439/2/4
f 439/3/4 435/3/4 440/3/4
f 443/2/5 442/2/5 441/2/5
f 444/2/5 442/2/5 443/2/5
f 447/2/5 446/2/5 445/2/5
f 448/2/5 446/2/5 447/2/5
f 451/2/5 450/2/5 449/2/5
f 452/2/5 450/2/5 451/2/5
f 455/2/5 454/2/5 453/2/5
f 456/2/5 454/2/5 455/2/5
f 459/2/5 458/2/5 457/2/5
f 460/2/5 458/2/5 459/2/5
f 463/2/5 462/2/5 461/2/5
f 464/2/5 462/2/5 463/2/5
f 467/2/5 466/2/5 465/2/5
f 468/2/5 466/2/5 467/2/5
f 471/2/5 470/2/5 469/2/5
f 472/2/5 470/2/5 471/2/5
f 475/2/5 474/2/5 473/2/5
f 476/2/5 474/2/5 475/2/5
f 479/2/5 478/2/5 477/2/5
f 480/2/5 478/2/5 479/2/5
f 483/2/5 482/2/5 481/2/5
f 484/2/5 482/2/5 483/2/5
f 487/2/5 486/2/5 485/2/5
f 488/2/5 486/2/5 487/2/5
f 491/2/5 490/2/5 489/2/5
f 492/2/5 490/2/5 491/2/5
f 495/2/5 494/2/5 493/2/5
f 496/2/5 494/2/5 495/2/5
f 499/2/5 498/2/5 497/2/5
f 500/2/5 498/2/5 499/2/5
f 503/2/5 502/2/5 501/2/5
f 504/2/5 502/2/5 503/2/5
f 507/2/5 506/2/5 505/2/5
f 508/2/5 506/2/5 507/2/5
f 511/2/5 510/2/5 509/2/5
f 512/2/5 510/2/5 511/2/5
f 515/2/5 514/2/5 513/2/5
f 516/2/5 514/2/5 515/2/5
f 519/2/5 518/2/5 517/2/5
f 520/2/5 518/2/5 519/2/5
f 523/2/5 522/2/5 521/2/5
f 524/2/5 522/2/5 523/2/5
f 527/2/5 526/2/5 525/2/5
f 528/2/5 526/2/5 527/2/5
f 531/2/5 530/2/5 529/2/5
f 532/2/5 530/2/5 531/2/5
f 535/2/5 534/2/5 533/2/5
f 536/2/5 534/2/5 535/2/5
f 539/2/5 538/2/5 537/2/5
f 540/2/5 538/2/5 539/2/5
f 543/2/5 542/2/5 541/2/5
f 544/2/5 542/2/5 543/2/5
f 547/2/5 546/2/5 545/2/5
f 548/2/5 546/2/5 547/2/5
f 551/2/5 550/2/5 549/2/5
f 552/2/5 550/2/5 551/2/5
f 555/2/5 554/2/5 553/2/5
f 556/2/5 554/2/5 555/2/5
f 559/2/5 558/2/5 557/2/5
f 560/2/5 558/2/5 559/2/5
f 563/2/5 562/2/5 561/2/5
f 564/2/5 562/2/5 563/2/5
f 567/2/5 566/2/5 565/2/5
f 568/2/5 566/2/5 567/2/5
f 571/2/5 570/2/5 569/2/5
f 572/2/5 570/2/5 571/2/5
f 575/3/5 574/3/5 573/3/5
f 576/3/5 574/3/5 575/3/5
f 577/3/5 575/3/5 573/3/5
f 579/3/5 577/3/5 573/3/5
f 579/3/5 578/3/5 577/3/5
f 580/3/5 578/3/5 579/3/5
f 583/3/5 582/3/5 581/3/5
f 584/3/5 582/3/5 583/3/5
f 585/3/6 586/3/6 587/3/6
f 587/3/6 586/3/6 588/3/6
f 589/3/6 590/3/6 591/3/6
f 591/3/6 590/3/6 592/3/6
