# MagicaVoxel @ Ephtracy

# group
g Banniere

# material
mtllib Banniere.mtl
usemtl palette

# normals
vn -1 0 0
vn 1 0 0
vn 0 0 1
vn 0 0 -1
vn 0 -1 0
vn 0 1 0

# texcoords
vt 0.849609 0.5
vt 0.982422 0.5

# verts
v 1 121 27
v 1 121 -30
v 1 123 27
v 1 123 -30
v 2 120 27
v 2 120 -30
v 2 121 27
v 2 121 -30
v 2 123 27
v 2 123 -30
v 2 124 27
v 2 124 -30
v 3 23 10
v 3 23 -10
v 3 24 13
v 3 24 10
v 3 24 -10
v 3 24 -13
v 3 25 16
v 3 25 13
v 3 25 -13
v 3 25 -17
v 3 26 18
v 3 26 16
v 3 26 -17
v 3 26 -18
v 3 27 -18
v 3 27 -19
v 3 28 19
v 3 28 18
v 3 28 -19
v 3 28 -20
v 3 30 20
v 3 30 19
v 3 30 -20
v 3 30 -21
v 3 33 21
v 3 33 20
v 3 33 -21
v 3 33 -22
v 3 120 21
v 3 120 -22
v 4 16 10
v 4 16 -11
v 4 17 16
v 4 17 10
v 4 17 -11
v 4 17 -16
v 4 18 20
v 4 18 16
v 4 18 -16
v 4 18 -20
v 4 19 -20
v 4 19 -23
v 4 20 22
v 4 20 20
v 4 20 -23
v 4 20 -24
v 4 22 -24
v 4 22 -25
v 4 23 23
v 4 23 22
v 4 23 10
v 4 23 -10
v 4 24 13
v 4 24 10
v 4 24 -10
v 4 24 -13
v 4 25 16
v 4 25 13
v 4 25 -13
v 4 25 -17
v 4 26 18
v 4 26 16
v 4 26 -17
v 4 26 -18
v 4 27 -18
v 4 27 -19
v 4 28 19
v 4 28 18
v 4 28 -19
v 4 28 -20
v 4 28 -25
v 4 28 -26
v 4 29 24
v 4 29 23
v 4 30 20
v 4 30 19
v 4 30 -20
v 4 30 -21
v 4 33 21
v 4 33 20
v 4 33 -21
v 4 33 -22
v 4 36 25
v 4 36 24
v 4 36 -26
v 4 36 -27
v 4 45 26
v 4 45 25
v 4 47 -27
v 4 47 -28
v 4 63 27
v 4 63 26
v 4 67 -28
v 4 67 -29
v 4 93 -29
v 4 93 -30
v 4 120 27
v 4 120 21
v 4 120 -22
v 4 120 -30
v 5 16 10
v 5 16 -11
v 5 17 16
v 5 17 10
v 5 17 -11
v 5 17 -16
v 5 18 20
v 5 18 16
v 5 18 -16
v 5 18 -20
v 5 19 -20
v 5 19 -23
v 5 20 22
v 5 20 20
v 5 20 -23
v 5 20 -24
v 5 22 -24
v 5 22 -25
v 5 23 23
v 5 23 22
v 5 28 -25
v 5 28 -26
v 5 29 24
v 5 29 23
v 5 36 25
v 5 36 24
v 5 36 -26
v 5 36 -27
v 5 45 26
v 5 45 25
v 5 47 -27
v 5 47 -28
v 5 63 27
v 5 63 26
v 5 67 -28
v 5 67 -29
v 5 93 -29
v 5 93 -30
v 5 120 27
v 5 120 -30
v 5 124 27
v 5 124 -30
v 1 121 27
v 1 123 27
v 2 120 27
v 2 121 27
v 2 123 27
v 2 124 27
v 4 63 27
v 4 120 27
v 5 63 27
v 5 120 27
v 5 124 27
v 4 45 26
v 4 63 26
v 5 45 26
v 5 63 26
v 4 36 25
v 4 45 25
v 5 36 25
v 5 45 25
v 4 29 24
v 4 36 24
v 5 29 24
v 5 36 24
v 4 23 23
v 4 29 23
v 5 23 23
v 5 29 23
v 4 20 22
v 4 23 22
v 5 20 22
v 5 23 22
v 3 33 21
v 3 120 21
v 4 33 21
v 4 120 21
v 3 30 20
v 3 33 20
v 4 18 20
v 4 20 20
v 4 30 20
v 4 33 20
v 5 18 20
v 5 20 20
v 3 28 19
v 3 30 19
v 4 28 19
v 4 30 19
v 3 26 18
v 3 28 18
v 4 26 18
v 4 28 18
v 3 25 16
v 3 26 16
v 4 17 16
v 4 18 16
v 4 25 16
v 4 26 16
v 5 17 16
v 5 18 16
v 3 24 13
v 3 25 13
v 4 24 13
v 4 25 13
v 3 23 10
v 3 24 10
v 4 16 10
v 4 17 10
v 4 23 10
v 4 24 10
v 5 16 10
v 5 17 10
v 3 23 -10
v 3 24 -10
v 4 23 -10
v 4 24 -10
v 4 16 -11
v 4 17 -11
v 5 16 -11
v 5 17 -11
v 3 24 -13
v 3 25 -13
v 4 24 -13
v 4 25 -13
v 4 17 -16
v 4 18 -16
v 5 17 -16
v 5 18 -16
v 3 25 -17
v 3 26 -17
v 4 25 -17
v 4 26 -17
v 3 26 -18
v 3 27 -18
v 4 26 -18
v 4 27 -18
v 3 27 -19
v 3 28 -19
v 4 27 -19
v 4 28 -19
v 3 28 -20
v 3 30 -20
v 4 18 -20
v 4 19 -20
v 4 28 -20
v 4 30 -20
v 5 18 -20
v 5 19 -20
v 3 30 -21
v 3 33 -21
v 4 30 -21
v 4 33 -21
v 3 33 -22
v 3 120 -22
v 4 33 -22
v 4 120 -22
v 4 19 -23
v 4 20 -23
v 5 19 -23
v 5 20 -23
v 4 20 -24
v 4 22 -24
v 5 20 -24
v 5 22 -24
v 4 22 -25
v 4 28 -25
v 5 22 -25
v 5 28 -25
v 4 28 -26
v 4 36 -26
v 5 28 -26
v 5 36 -26
v 4 36 -27
v 4 47 -27
v 5 36 -27
v 5 47 -27
v 4 47 -28
v 4 67 -28
v 5 47 -28
v 5 67 -28
v 4 67 -29
v 4 93 -29
v 5 67 -29
v 5 93 -29
v 1 121 -30
v 1 123 -30
v 2 120 -30
v 2 121 -30
v 2 123 -30
v 2 124 -30
v 4 93 -30
v 4 120 -30
v 5 93 -30
v 5 120 -30
v 5 124 -30
v 4 16 10
v 5 16 10
v 4 16 -11
v 5 16 -11
v 4 17 16
v 5 17 16
v 4 17 10
v 5 17 10
v 4 17 -11
v 5 17 -11
v 4 17 -16
v 5 17 -16
v 4 18 20
v 5 18 20
v 4 18 16
v 5 18 16
v 4 18 -16
v 5 18 -16
v 4 18 -20
v 5 18 -20
v 4 19 -20
v 5 19 -20
v 4 19 -23
v 5 19 -23
v 4 20 22
v 5 20 22
v 4 20 20
v 5 20 20
v 4 20 -23
v 5 20 -23
v 4 20 -24
v 5 20 -24
v 4 22 -24
v 5 22 -24
v 4 22 -25
v 5 22 -25
v 4 23 23
v 5 23 23
v 4 23 22
v 5 23 22
v 3 23 10
v 4 23 10
v 3 23 -10
v 4 23 -10
v 3 24 13
v 4 24 13
v 3 24 10
v 4 24 10
v 3 24 -10
v 4 24 -10
v 3 24 -13
v 4 24 -13
v 3 25 16
v 4 25 16
v 3 25 13
v 4 25 13
v 3 25 -13
v 4 25 -13
v 3 25 -17
v 4 25 -17
v 3 26 18
v 4 26 18
v 3 26 16
v 4 26 16
v 3 26 -17
v 4 26 -17
v 3 26 -18
v 4 26 -18
v 3 27 -18
v 4 27 -18
v 3 27 -19
v 4 27 -19
v 3 28 19
v 4 28 19
v 3 28 18
v 4 28 18
v 3 28 -19
v 4 28 -19
v 3 28 -20
v 4 28 -20
v 4 28 -25
v 5 28 -25
v 4 28 -26
v 5 28 -26
v 4 29 24
v 5 29 24
v 4 29 23
v 5 29 23
v 3 30 20
v 4 30 20
v 3 30 19
v 4 30 19
v 3 30 -20
v 4 30 -20
v 3 30 -21
v 4 30 -21
v 3 33 21
v 4 33 21
v 3 33 20
v 4 33 20
v 3 33 -21
v 4 33 -21
v 3 33 -22
v 4 33 -22
v 4 36 25
v 5 36 25
v 4 36 24
v 5 36 24
v 4 36 -26
v 5 36 -26
v 4 36 -27
v 5 36 -27
v 4 45 26
v 5 45 26
v 4 45 25
v 5 45 25
v 4 47 -27
v 5 47 -27
v 4 47 -28
v 5 47 -28
v 4 63 27
v 5 63 27
v 4 63 26
v 5 63 26
v 4 67 -28
v 5 67 -28
v 4 67 -29
v 5 67 -29
v 4 93 -29
v 5 93 -29
v 4 93 -30
v 5 93 -30
v 2 120 27
v 4 120 27
v 3 120 21
v 4 120 21
v 3 120 -22
v 4 120 -22
v 2 120 -30
v 4 120 -30
v 1 121 27
v 2 121 27
v 1 121 -30
v 2 121 -30
v 1 123 27
v 2 123 27
v 1 123 -30
v 2 123 -30
v 2 124 27
v 5 124 27
v 2 124 -30
v 5 124 -30

# faces
f 3/2/1 2/2/1 1/2/1
f 4/2/1 2/2/1 3/2/1
f 7/2/1 6/2/1 5/2/1
f 8/2/1 6/2/1 7/2/1
f 11/2/1 10/2/1 9/2/1
f 12/2/1 10/2/1 11/2/1
f 16/1/1 14/1/1 13/1/1
f 17/1/1 14/1/1 16/1/1
f 20/1/1 16/1/1 15/1/1
f 20/1/1 18/1/1 17/1/1
f 20/1/1 17/1/1 16/1/1
f 21/1/1 18/1/1 20/1/1
f 24/1/1 20/1/1 19/1/1
f 24/1/1 22/1/1 21/1/1
f 24/1/1 21/1/1 20/1/1
f 25/1/1 22/1/1 24/1/1
f 27/1/1 24/1/1 23/1/1
f 27/1/1 26/1/1 25/1/1
f 27/1/1 25/1/1 24/1/1
f 30/1/1 27/1/1 23/1/1
f 30/1/1 28/1/1 27/1/1
f 31/1/1 28/1/1 30/1/1
f 34/1/1 30/1/1 29/1/1
f 34/1/1 32/1/1 31/1/1
f 34/1/1 31/1/1 30/1/1
f 35/1/1 32/1/1 34/1/1
f 38/1/1 34/1/1 33/1/1
f 38/1/1 36/1/1 35/1/1
f 38/1/1 35/1/1 34/1/1
f 39/1/1 36/1/1 38/1/1
f 41/1/1 38/1/1 37/1/1
f 41/1/1 40/1/1 39/1/1
f 41/1/1 39/1/1 38/1/1
f 42/1/1 40/1/1 41/1/1
f 46/1/1 44/1/1 43/1/1
f 47/1/1 44/1/1 46/1/1
f 50/1/1 46/1/1 45/1/1
f 50/1/1 48/1/1 47/1/1
f 50/1/1 47/1/1 46/1/1
f 51/1/1 48/1/1 50/1/1
f 53/1/1 50/1/1 49/1/1
f 53/1/1 52/1/1 51/1/1
f 53/1/1 51/1/1 50/1/1
f 56/1/1 53/1/1 49/1/1
f 56/1/1 54/1/1 53/1/1
f 57/1/1 54/1/1 56/1/1
f 59/1/1 56/1/1 55/1/1
f 59/1/1 58/1/1 57/1/1
f 59/1/1 57/1/1 56/1/1
f 62/1/1 59/1/1 55/1/1
f 62/1/1 60/1/1 59/1/1
f 63/1/1 60/1/1 62/1/1
f 64/1/1 60/1/1 63/1/1
f 65/1/1 62/1/1 61/1/1
f 65/1/1 63/1/1 62/1/1
f 66/1/1 63/1/1 65/1/1
f 67/1/1 60/1/1 64/1/1
f 68/1/1 60/1/1 67/1/1
f 69/1/1 65/1/1 61/1/1
f 70/1/1 65/1/1 69/1/1
f 71/1/1 60/1/1 68/1/1
f 72/1/1 60/1/1 71/1/1
f 73/1/1 69/1/1 61/1/1
f 74/1/1 69/1/1 73/1/1
f 75/1/1 60/1/1 72/1/1
f 76/1/1 60/1/1 75/1/1
f 77/1/1 60/1/1 76/1/1
f 78/1/1 60/1/1 77/1/1
f 79/1/1 73/1/1 61/1/1
f 80/1/1 73/1/1 79/1/1
f 81/1/1 60/1/1 78/1/1
f 82/1/1 60/1/1 81/1/1
f 83/1/1 60/1/1 82/1/1
f 86/1/1 79/1/1 61/1/1
f 87/1/1 79/1/1 86/1/1
f 87/1/1 86/1/1 85/1/1
f 88/1/1 79/1/1 87/1/1
f 89/1/1 84/1/1 83/1/1
f 89/1/1 83/1/1 82/1/1
f 90/1/1 84/1/1 89/1/1
f 91/1/1 87/1/1 85/1/1
f 92/1/1 87/1/1 91/1/1
f 93/1/1 84/1/1 90/1/1
f 94/1/1 84/1/1 93/1/1
f 96/1/1 91/1/1 85/1/1
f 97/1/1 84/1/1 94/1/1
f 100/1/1 96/1/1 95/1/1
f 101/1/1 98/1/1 97/1/1
f 104/1/1 100/1/1 99/1/1
f 105/1/1 102/1/1 101/1/1
f 107/1/1 106/1/1 105/1/1
f 109/1/1 104/1/1 103/1/1
f 110/1/1 91/1/1 96/1/1
f 110/1/1 104/1/1 109/1/1
f 110/1/1 96/1/1 100/1/1
f 110/1/1 100/1/1 104/1/1
f 111/1/1 108/1/1 107/1/1
f 111/1/1 97/1/1 94/1/1
f 111/1/1 105/1/1 101/1/1
f 111/1/1 107/1/1 105/1/1
f 111/1/1 101/1/1 97/1/1
f 112/1/1 108/1/1 111/1/1
f 113/1/2 114/1/2 116/1/2
f 116/1/2 114/1/2 117/1/2
f 115/1/2 116/1/2 120/1/2
f 117/1/2 118/1/2 120/1/2
f 116/1/2 117/1/2 120/1/2
f 120/1/2 118/1/2 121/1/2
f 119/1/2 120/1/2 123/1/2
f 121/1/2 122/1/2 123/1/2
f 120/1/2 121/1/2 123/1/2
f 119/1/2 123/1/2 126/1/2
f 123/1/2 124/1/2 126/1/2
f 126/1/2 124/1/2 127/1/2
f 125/1/2 126/1/2 129/1/2
f 127/1/2 128/1/2 129/1/2
f 126/1/2 127/1/2 129/1/2
f 125/1/2 129/1/2 132/1/2
f 129/1/2 130/1/2 132/1/2
f 132/1/2 130/1/2 133/1/2
f 131/1/2 132/1/2 133/1/2
f 131/1/2 133/1/2 136/1/2
f 133/1/2 134/1/2 136/1/2
f 135/1/2 136/1/2 138/1/2
f 136/1/2 134/1/2 139/1/2
f 138/1/2 136/1/2 139/1/2
f 137/1/2 138/1/2 142/1/2
f 139/1/2 140/1/2 142/1/2
f 138/1/2 139/1/2 142/1/2
f 142/1/2 140/1/2 143/1/2
f 141/1/2 142/1/2 143/1/2
f 141/1/2 143/1/2 146/1/2
f 143/1/2 144/1/2 146/1/2
f 146/1/2 144/1/2 147/1/2
f 145/1/2 146/1/2 147/1/2
f 147/1/2 148/1/2 149/1/2
f 145/1/2 147/1/2 151/1/2
f 149/1/2 150/1/2 151/1/2
f 147/1/2 149/1/2 151/1/2
f 151/1/2 150/1/2 152/1/2
f 151/2/2 152/2/2 153/2/2
f 153/2/2 152/2/2 154/2/2
f 158/2/3 156/2/3 155/2/3
f 159/2/3 156/2/3 158/2/3
f 162/2/3 158/2/3 157/2/3
f 162/2/3 160/2/3 159/2/3
f 162/2/3 159/2/3 158/2/3
f 163/1/3 162/1/3 161/1/3
f 164/2/3 160/2/3 162/2/3
f 164/1/3 162/1/3 163/1/3
f 165/2/3 160/2/3 164/2/3
f 168/1/3 167/1/3 166/1/3
f 169/1/3 167/1/3 168/1/3
f 172/1/3 171/1/3 170/1/3
f 173/1/3 171/1/3 172/1/3
f 176/1/3 175/1/3 174/1/3
f 177/1/3 175/1/3 176/1/3
f 180/1/3 179/1/3 178/1/3
f 181/1/3 179/1/3 180/1/3
f 184/1/3 183/1/3 182/1/3
f 185/1/3 183/1/3 184/1/3
f 188/1/3 187/1/3 186/1/3
f 189/1/3 187/1/3 188/1/3
f 194/1/3 191/1/3 190/1/3
f 195/1/3 191/1/3 194/1/3
f 196/1/3 193/1/3 192/1/3
f 197/1/3 193/1/3 196/1/3
f 200/1/3 199/1/3 198/1/3
f 201/1/3 199/1/3 200/1/3
f 204/1/3 203/1/3 202/1/3
f 205/1/3 203/1/3 204/1/3
f 210/1/3 207/1/3 206/1/3
f 211/1/3 207/1/3 210/1/3
f 212/1/3 209/1/3 208/1/3
f 213/1/3 209/1/3 212/1/3
f 216/1/3 215/1/3 214/1/3
f 217/1/3 215/1/3 216/1/3
f 222/1/3 219/1/3 218/1/3
f 223/1/3 219/1/3 222/1/3
f 224/1/3 221/1/3 220/1/3
f 225/1/3 221/1/3 224/1/3
f 226/1/4 227/1/4 228/1/4
f 228/1/4 227/1/4 229/1/4
f 230/1/4 231/1/4 232/1/4
f 232/1/4 231/1/4 233/1/4
f 234/1/4 235/1/4 236/1/4
f 236/1/4 235/1/4 237/1/4
f 238/1/4 239/1/4 240/1/4
f 240/1/4 239/1/4 241/1/4
f 242/1/4 243/1/4 244/1/4
f 244/1/4 243/1/4 245/1/4
f 246/1/4 247/1/4 248/1/4
f 248/1/4 247/1/4 249/1/4
f 250/1/4 251/1/4 252/1/4
f 252/1/4 251/1/4 253/1/4
f 254/1/4 255/1/4 258/1/4
f 258/1/4 255/1/4 259/1/4
f 256/1/4 257/1/4 260/1/4
f 260/1/4 257/1/4 261/1/4
f 262/1/4 263/1/4 264/1/4
f 264/1/4 263/1/4 265/1/4
f 266/1/4 267/1/4 268/1/4
f 268/1/4 267/1/4 269/1/4
f 270/1/4 271/1/4 272/1/4
f 272/1/4 271/1/4 273/1/4
f 274/1/4 275/1/4 276/1/4
f 276/1/4 275/1/4 277/1/4
f 278/1/4 279/1/4 280/1/4
f 280/1/4 279/1/4 281/1/4
f 282/1/4 283/1/4 284/1/4
f 284/1/4 283/1/4 285/1/4
f 286/1/4 287/1/4 288/1/4
f 288/1/4 287/1/4 289/1/4
f 290/1/4 291/1/4 292/1/4
f 292/1/4 291/1/4 293/1/4
f 294/1/4 295/1/4 296/1/4
f 296/1/4 295/1/4 297/1/4
f 298/2/4 299/2/4 301/2/4
f 301/2/4 299/2/4 302/2/4
f 300/2/4 301/2/4 305/2/4
f 302/2/4 303/2/4 305/2/4
f 301/2/4 302/2/4 305/2/4
f 304/1/4 305/1/4 306/1/4
f 305/2/4 303/2/4 307/2/4
f 306/1/4 305/1/4 307/1/4
f 307/2/4 303/2/4 308/2/4
f 311/1/5 310/1/5 309/1/5
f 312/1/5 310/1/5 311/1/5
f 315/1/5 314/1/5 313/1/5
f 316/1/5 314/1/5 315/1/5
f 319/1/5 318/1/5 317/1/5
f 320/1/5 318/1/5 319/1/5
f 323/1/5 322/1/5 321/1/5
f 324/1/5 322/1/5 323/1/5
f 327/1/5 326/1/5 325/1/5
f 328/1/5 326/1/5 327/1/5
f 331/1/5 330/1/5 329/1/5
f 332/1/5 330/1/5 331/1/5
f 335/1/5 334/1/5 333/1/5
f 336/1/5 334/1/5 335/1/5
f 339/1/5 338/1/5 337/1/5
f 340/1/5 338/1/5 339/1/5
f 343/1/5 342/1/5 341/1/5
f 344/1/5 342/1/5 343/1/5
f 347/1/5 346/1/5 345/1/5
f 348/1/5 346/1/5 347/1/5
f 351/1/5 350/1/5 349/1/5
f 352/1/5 350/1/5 351/1/5
f 355/1/5 354/1/5 353/1/5
f 356/1/5 354/1/5 355/1/5
f 359/1/5 358/1/5 357/1/5
f 360/1/5 358/1/5 359/1/5
f 363/1/5 362/1/5 361/1/5
f 364/1/5 362/1/5 363/1/5
f 367/1/5 366/1/5 365/1/5
f 368/1/5 366/1/5 367/1/5
f 371/1/5 370/1/5 369/1/5
f 372/1/5 370/1/5 371/1/5
f 375/1/5 374/1/5 373/1/5
f 376/1/5 374/1/5 375/1/5
f 379/1/5 378/1/5 377/1/5
f 380/1/5 378/1/5 379/1/5
f 383/1/5 382/1/5 381/1/5
f 384/1/5 382/1/5 383/1/5
f 387/1/5 386/1/5 385/1/5
f 388/1/5 386/1/5 387/1/5
f 391/1/5 390/1/5 389/1/5
f 392/1/5 390/1/5 391/1/5
f 395/1/5 394/1/5 393/1/5
f 396/1/5 394/1/5 395/1/5
f 399/1/5 398/1/5 397/1/5
f 400/1/5 398/1/5 399/1/5
f 403/1/5 402/1/5 401/1/5
f 404/1/5 402/1/5 403/1/5
f 407/1/5 406/1/5 405/1/5
f 408/1/5 406/1/5 407/1/5
f 411/1/5 410/1/5 409/1/5
f 412/1/5 410/1/5 411/1/5
f 415/1/5 414/1/5 413/1/5
f 416/1/5 414/1/5 415/1/5
f 419/1/5 418/1/5 417/1/5
f 420/1/5 418/1/5 419/1/5
f 423/1/5 422/1/5 421/1/5
f 424/1/5 422/1/5 423/1/5
f 427/1/5 426/1/5 425/1/5
f 428/1/5 426/1/5 427/1/5
f 431/1/5 430/1/5 429/1/5
f 432/1/5 430/1/5 431/1/5
f 435/1/5 434/1/5 433/1/5
f 436/1/5 434/1/5 435/1/5
f 439/1/5 438/1/5 437/1/5
f 440/1/5 438/1/5 439/1/5
f 443/2/5 442/2/5 441/2/5
f 444/2/5 442/2/5 443/2/5
f 445/2/5 443/2/5 441/2/5
f 447/2/5 445/2/5 441/2/5
f 447/2/5 446/2/5 445/2/5
f 448/2/5 446/2/5 447/2/5
f 451/2/5 450/2/5 449/2/5
f 452/2/5 450/2/5 451/2/5
f 453/2/6 454/2/6 455/2/6
f 455/2/6 454/2/6 456/2/6
f 457/2/6 458/2/6 459/2/6
f 459/2/6 458/2/6 460/2/6
